<svg width="30" height="30" viewBox="0 0 30 30" fill="none" xmlns="http://www.w3.org/2000/svg">
<g opacity="0.5" clip-path="url(#clip0)">
<path d="M0.929047 6.28659L0.675454 6.1401C0.465395 6.01864 0.196743 6.09083 0.0755123 6.30094C-0.0457767 6.51118 0.026235 6.77995 0.236294 6.90124L0.489887 7.04772C0.559087 7.08774 0.634555 7.10667 0.709087 7.10667C0.860844 7.10667 1.0085 7.0278 1.08983 6.88688C1.21112 6.67665 1.13911 6.40788 0.929047 6.28659Z" fill="black"/>
<path d="M3.00889 7.48773L2.48893 7.18744C2.27887 7.06592 2.01022 7.13811 1.88899 7.34834C1.7677 7.55852 1.83971 7.82728 2.04983 7.94857L2.56979 8.24887C2.63899 8.28889 2.71446 8.30781 2.78899 8.30781C2.94074 8.30781 3.0884 8.22894 3.16979 8.08797C3.29096 7.87779 3.21895 7.60902 3.00889 7.48773Z" fill="black"/>
<path d="M19.6476 17.097L19.1276 16.7967C18.9175 16.6752 18.6489 16.7474 18.5277 16.9576C18.4064 17.1678 18.4784 17.4365 18.6885 17.5578L19.2084 17.8581C19.2776 17.8981 19.3531 17.9171 19.4276 17.9171C19.5794 17.9171 19.727 17.8382 19.8084 17.6972C19.9297 17.487 19.8577 17.2183 19.6476 17.097Z" fill="black"/>
<path d="M23.8068 19.4994L23.2868 19.1991C23.0768 19.0776 22.8081 19.1497 22.6868 19.36C22.5655 19.5701 22.6376 19.8389 22.8477 19.9602L23.3676 20.2605C23.4368 20.3005 23.5123 20.3194 23.5868 20.3194C23.7386 20.3194 23.8863 20.2406 23.9676 20.0996C24.0889 19.8894 24.0169 19.6207 23.8068 19.4994Z" fill="black"/>
<path d="M21.7277 18.2982L21.2077 17.9979C20.9976 17.8764 20.7291 17.9485 20.6077 18.1588C20.4864 18.369 20.5585 18.6377 20.7686 18.759L21.2885 19.0593C21.3577 19.0993 21.4332 19.1182 21.5077 19.1182C21.6595 19.1182 21.8072 19.0394 21.8885 18.8984C22.0098 18.6882 21.9378 18.4195 21.7277 18.2982Z" fill="black"/>
<path d="M17.5675 15.8958L17.0476 15.5955C16.8375 15.474 16.5689 15.5462 16.4476 15.7564C16.3263 15.9666 16.3983 16.2354 16.6084 16.3567L17.1284 16.6569C17.1975 16.697 17.273 16.7159 17.3476 16.7159C17.4993 16.7159 17.647 16.637 17.7284 16.496C17.8497 16.2859 17.7777 16.0171 17.5675 15.8958Z" fill="black"/>
<path d="M27.967 21.9016L27.447 21.6013C27.2369 21.4798 26.9683 21.5519 26.847 21.7622C26.7257 21.9724 26.7977 22.2412 27.0078 22.3625L27.5278 22.6628C27.597 22.7028 27.6725 22.7217 27.747 22.7217C27.8988 22.7217 28.0464 22.6428 28.1278 22.5019C28.2491 22.2917 28.1771 22.0229 27.967 21.9016Z" fill="black"/>
<path d="M29.7806 22.949L29.527 22.8025C29.3169 22.681 29.0484 22.7532 28.9271 22.9633C28.8058 23.1736 28.8778 23.4423 29.0879 23.5636L29.3415 23.7101C29.4106 23.7501 29.4861 23.7691 29.5607 23.7691C29.7124 23.7691 29.8601 23.6902 29.9414 23.5493C30.0627 23.339 29.9907 23.0703 29.7806 22.949Z" fill="black"/>
<path d="M0.929005 17.6406L0.675411 17.4942C0.465294 17.3729 0.196758 17.445 0.0754694 17.6552C-0.0457611 17.8654 0.0262506 18.1342 0.236368 18.2555L0.489962 18.4019C0.559102 18.4419 0.634571 18.4608 0.709102 18.4608C0.860919 18.4608 1.00858 18.3819 1.0899 18.2409C1.21119 18.0308 1.13912 17.762 0.929005 17.6406Z" fill="black"/>
<path d="M17.1149 26.9885L16.609 26.6964C16.399 26.5751 16.1303 26.6472 16.0091 26.8574C15.8878 27.0676 15.9599 27.3363 16.1699 27.4577L16.6758 27.7498C16.745 27.7897 16.8204 27.8087 16.8949 27.8087C17.0467 27.8087 17.1944 27.7298 17.2757 27.5888C17.3969 27.3786 17.3249 27.1099 17.1149 26.9885Z" fill="black"/>
<path d="M19.1383 28.157L18.6325 27.8649C18.4225 27.7436 18.1538 27.8156 18.0325 28.0258C17.9113 28.236 17.9833 28.5048 18.1934 28.6261L18.6992 28.9182C18.7683 28.9582 18.8438 28.9771 18.9183 28.9771C19.0701 28.9771 19.2177 28.8982 19.2991 28.7573C19.4204 28.5471 19.3484 28.2783 19.1383 28.157Z" fill="black"/>
<path d="M2.95174 18.8091L2.44596 18.517C2.23596 18.3957 1.96725 18.4678 1.84602 18.678C1.72473 18.8881 1.79674 19.1569 2.00686 19.2783L2.51264 19.5704C2.58178 19.6103 2.65725 19.6293 2.73178 19.6293C2.88354 19.6293 3.03119 19.5504 3.11258 19.4094C3.23387 19.1992 3.16186 18.9305 2.95174 18.8091Z" fill="black"/>
<path d="M20.9095 29.1799L20.6559 29.0334C20.4459 28.9121 20.1772 28.9841 20.056 29.1943C19.9347 29.4045 20.0067 29.6732 20.2168 29.7946L20.4704 29.9411C20.5395 29.981 20.615 30 20.6896 30C20.8413 30 20.989 29.9212 21.0703 29.7802C21.1916 29.57 21.1196 29.3013 20.9095 29.1799Z" fill="black"/>
<path d="M29.9414 6.30093C29.8202 6.09069 29.5514 6.01885 29.3414 6.14008L29.0879 6.28657C28.8778 6.40786 28.8058 6.67663 28.9271 6.88686C29.0084 7.02784 29.1561 7.10665 29.3078 7.10665C29.3823 7.10665 29.4579 7.08766 29.527 7.0477L29.7806 6.90122C29.9907 6.77993 30.0627 6.51116 29.9414 6.30093Z" fill="black"/>
<path d="M9.40895 18.1588C9.28766 17.9485 9.01906 17.8765 8.809 17.9979L8.28905 18.2982C8.07899 18.4195 8.00698 18.6882 8.12821 18.8984C8.20948 19.0394 8.35713 19.1183 8.50895 19.1183C8.58342 19.1183 8.65895 19.0993 8.72815 19.0593L9.24811 18.759C9.45816 18.6377 9.53018 18.369 9.40895 18.1588Z" fill="black"/>
<path d="M7.32887 19.36C7.20758 19.1497 6.93899 19.0777 6.72893 19.1991L6.20897 19.4994C5.99891 19.6206 5.9269 19.8894 6.04813 20.0996C6.1294 20.2406 6.27705 20.3194 6.42887 20.3194C6.50334 20.3194 6.57887 20.3004 6.64807 20.2605L7.16803 19.9602C7.37809 19.8389 7.4501 19.5701 7.32887 19.36Z" fill="black"/>
<path d="M3.16975 21.7622C3.04846 21.5519 2.77987 21.48 2.56975 21.6013L2.04979 21.9016C1.83973 22.0229 1.76772 22.2917 1.88895 22.5018C1.97028 22.6429 2.11793 22.7217 2.26975 22.7217C2.34428 22.7217 2.41975 22.7027 2.48895 22.6627L3.00891 22.3625C3.21897 22.2412 3.29098 21.9724 3.16975 21.7622Z" fill="black"/>
<path d="M28.1278 7.34834C28.0064 7.13804 27.7378 7.06609 27.5278 7.18744L27.0078 7.48773C26.7977 7.60902 26.7257 7.87779 26.847 8.08796C26.9283 8.229 27.0759 8.30781 27.2278 8.30781C27.3022 8.30781 27.3778 8.28882 27.447 8.24886L27.9669 7.94857C28.177 7.82728 28.249 7.55851 28.1278 7.34834Z" fill="black"/>
<path d="M11.489 16.9576C11.3677 16.7474 11.0991 16.6754 10.8891 16.7967L10.3691 17.097C10.1591 17.2183 10.0871 17.4871 10.2083 17.6973C10.2896 17.8383 10.4372 17.9171 10.589 17.9171C10.6635 17.9171 10.739 17.8981 10.8082 17.8582L11.3282 17.5579C11.5382 17.4366 11.6103 17.1678 11.489 16.9576Z" fill="black"/>
<path d="M13.5691 15.7564C13.4478 15.5461 13.1792 15.4741 12.9692 15.5955L12.4492 15.8958C12.2391 16.0171 12.1671 16.2859 12.2884 16.4961C12.3696 16.6372 12.5173 16.7159 12.6691 16.7159C12.7436 16.7159 12.8191 16.6969 12.8883 16.657L13.4083 16.3567C13.6183 16.2354 13.6903 15.9666 13.5691 15.7564Z" fill="black"/>
<path d="M1.08983 22.9633C0.96854 22.7531 0.699829 22.6811 0.489887 22.8025L0.236294 22.949C0.026235 23.0703 -0.0457767 23.339 0.0755124 23.5493C0.15684 23.6902 0.304497 23.7691 0.456255 23.7691C0.530786 23.7691 0.606313 23.7501 0.675454 23.7101L0.929048 23.5636C1.13911 23.4423 1.21112 23.1736 1.08983 22.9633Z" fill="black"/>
<path d="M29.9415 17.6552C29.8202 17.445 29.5515 17.3729 29.3415 17.4942L29.0879 17.6406C28.8778 17.7619 28.8058 18.0307 28.927 18.2409C29.0084 18.382 29.1561 18.4608 29.3078 18.4608C29.3823 18.4608 29.4578 18.4419 29.527 18.4019L29.7806 18.2555C29.9907 18.1342 30.0626 17.8654 29.9415 17.6552Z" fill="black"/>
<path d="M11.9837 28.0259C11.8624 27.8156 11.5937 27.7437 11.3837 27.8649L10.878 28.157C10.6678 28.2784 10.5958 28.5471 10.7171 28.7573C10.7984 28.8983 10.9461 28.9771 11.0979 28.9771C11.1724 28.9771 11.2479 28.9582 11.3171 28.9183L11.8228 28.6262C12.0329 28.5048 12.105 28.2361 11.9837 28.0259Z" fill="black"/>
<path d="M25.8869 20.7004L25.7167 20.6022L25.9858 20.4467C26.1959 20.3254 26.268 20.0567 26.1467 19.8464C26.0254 19.6362 25.7567 19.5641 25.5467 19.6855L25.1096 19.938V18.75C25.1096 18.5072 24.9129 18.3105 24.6703 18.3105C24.4278 18.3105 24.2311 18.5072 24.2311 18.75V20.4453L23.5238 20.8538C23.5237 20.8538 23.5235 20.8539 23.5235 20.854L23.0177 21.1461C23.0177 21.1461 23.0176 21.1461 23.0175 21.1462L15.4469 25.5181V25.3124C15.4469 25.0697 15.2502 24.873 15.0076 24.873C14.7651 24.873 14.5684 25.0697 14.5684 25.3124V25.5181L5.78464 20.4453V13.1055C5.78464 12.8627 5.588 12.666 5.34542 12.666C5.10284 12.666 4.9062 12.8627 4.9062 13.1055V19.9377L4.46938 19.6854C4.25927 19.5641 3.99067 19.6362 3.86944 19.8464C3.74815 20.0566 3.82022 20.3253 4.03028 20.4467L4.2994 20.6021L4.12925 20.7004C3.91919 20.8217 3.84718 21.0904 3.96841 21.3006C4.04974 21.4417 4.19739 21.5205 4.34921 21.5205C4.42374 21.5205 4.49921 21.5015 4.56841 21.4615L5.08837 21.1612C5.1172 21.1446 5.14321 21.1249 5.16671 21.1032L14.7882 26.6597C14.7884 26.6599 14.7888 26.66 14.7892 26.6602C14.8018 26.6675 14.8149 26.6735 14.8282 26.6794C14.8326 26.6814 14.8368 26.6839 14.8413 26.6857C14.853 26.6905 14.865 26.6941 14.877 26.6978C14.8833 26.6997 14.8893 26.7023 14.8957 26.704C14.9079 26.7072 14.9205 26.7092 14.9331 26.7113C14.9392 26.7124 14.9452 26.7141 14.9513 26.7149C14.9701 26.7174 14.9891 26.7186 15.0082 26.7186C15.0643 26.7186 15.1209 26.7078 15.1749 26.6855C15.185 26.6814 15.1945 26.676 15.2043 26.6711C15.212 26.6672 15.2198 26.6641 15.2273 26.6598L15.362 26.582C15.3626 26.5817 15.3631 26.5815 15.3637 26.5812L15.8694 26.2891C15.8701 26.2887 15.8708 26.2881 15.8715 26.2878L17.3857 25.4133C17.3861 25.4131 17.3866 25.4129 17.3869 25.4127L17.8927 25.1205C17.893 25.1204 17.8933 25.1202 17.8936 25.12L19.4094 24.2446C19.4097 24.2445 19.41 24.2444 19.4102 24.2442L19.916 23.9521C19.916 23.9521 19.916 23.952 19.9161 23.952L21.433 23.076C21.4331 23.076 21.4333 23.0759 21.4334 23.0758L21.9392 22.7837C21.9395 22.7836 21.9396 22.7835 21.9399 22.7833L24.8492 21.1032C24.8728 21.1249 24.8988 21.1446 24.9277 21.1613L25.4477 21.4616C25.5169 21.5016 25.5923 21.5205 25.6669 21.5205C25.8186 21.5205 25.9663 21.4417 26.0477 21.3007C26.169 21.0905 26.097 20.8217 25.8869 20.7004Z" fill="black"/>
<path d="M14.0072 26.8573C13.8859 26.6472 13.6172 26.575 13.4072 26.6964L12.9014 26.9884C12.6913 27.1098 12.6192 27.3785 12.7405 27.5887C12.8219 27.7297 12.9695 27.8086 13.1213 27.8086C13.1958 27.8086 13.2713 27.7897 13.3405 27.7497L13.8463 27.4576C14.0564 27.3363 14.1284 27.0675 14.0072 26.8573Z" fill="black"/>
<path d="M28.1702 18.678C28.0489 18.4677 27.7803 18.3958 27.5703 18.517L27.0645 18.8091C26.8544 18.9304 26.7823 19.1992 26.9036 19.4094C26.985 19.5504 27.1326 19.6292 27.2844 19.6292C27.3589 19.6292 27.4344 19.6102 27.5036 19.5703L28.0094 19.2782C28.2194 19.1569 28.2915 18.8881 28.1702 18.678Z" fill="black"/>
<path d="M9.96092 29.1942C9.83969 28.9841 9.57098 28.9121 9.36098 29.0334L9.10739 29.1799C8.89733 29.3012 8.82532 29.57 8.94661 29.7802C9.02793 29.9212 9.17559 30 9.32735 30C9.40188 30 9.47741 29.981 9.54655 29.941L9.80014 29.7945C10.0102 29.6732 10.0822 29.4044 9.96092 29.1942Z" fill="black"/>
<path d="M29.7813 11.8079L29.5281 11.6607C29.3185 11.5388 29.0496 11.6102 28.9277 11.8199C28.8058 12.0297 28.8771 12.2988 29.0868 12.4207L29.34 12.5679C29.4095 12.6082 29.4853 12.6274 29.5603 12.6274C29.7116 12.6274 29.8589 12.549 29.9404 12.4087C30.0623 12.1988 29.9911 11.9298 29.7813 11.8079Z" fill="black"/>
<path d="M13.8702 2.55639L13.3651 2.26266C13.1555 2.14079 12.8866 2.21198 12.7647 2.4218C12.6427 2.63157 12.7139 2.90057 12.9237 3.02251L13.4288 3.31624C13.4982 3.35661 13.5742 3.37583 13.6491 3.37583C13.8005 3.37583 13.9477 3.29749 14.0293 3.15716C14.1511 2.94733 14.0799 2.67833 13.8702 2.55639Z" fill="black"/>
<path d="M11.8497 1.38161L11.3445 1.08788C11.1349 0.965951 10.866 1.0372 10.7441 1.24703C10.6223 1.45685 10.6934 1.72579 10.9031 1.84773L11.4082 2.14146C11.4777 2.18183 11.5536 2.20105 11.6285 2.20105C11.7799 2.20105 11.9271 2.12271 12.0087 1.98238C12.1306 1.77255 12.0594 1.50355 11.8497 1.38161Z" fill="black"/>
<path d="M28.0127 10.7797L27.5076 10.4859C27.298 10.3641 27.0291 10.4352 26.9072 10.6451C26.7853 10.8549 26.8565 11.1239 27.0662 11.2458L27.5713 11.5396C27.6407 11.5799 27.7167 11.5992 27.7916 11.5992C27.943 11.5992 28.0902 11.5208 28.1718 11.3805C28.2936 11.1706 28.2225 10.9016 28.0127 10.7797Z" fill="black"/>
<path d="M25.992 9.60493L25.5467 9.34606L25.8865 9.14983C26.0965 9.02854 26.1685 8.75977 26.0473 8.54959C25.926 8.33924 25.6574 8.26729 25.4473 8.3887L24.9274 8.68899C24.8466 8.73557 24.7865 8.80407 24.7497 8.88258L15.2282 3.3409C15.2269 3.34014 15.2255 3.33967 15.2242 3.33891C15.2086 3.33006 15.1926 3.32192 15.1759 3.31495C15.1754 3.31471 15.1747 3.31454 15.1741 3.3143C15.1587 3.30797 15.1426 3.30264 15.1263 3.29807C15.1219 3.29684 15.1175 3.29573 15.1131 3.29467C15.1002 3.29145 15.087 3.28887 15.0736 3.28682C15.069 3.28612 15.0644 3.28524 15.0598 3.28471C15.0429 3.28272 15.0258 3.28137 15.0084 3.28137C15.0078 3.28137 15.0071 3.28137 15.0065 3.28137C14.9891 3.28137 14.972 3.28272 14.9551 3.28471C14.9505 3.28524 14.9459 3.28612 14.9413 3.28682C14.9278 3.28887 14.9146 3.29145 14.9016 3.29467C14.8972 3.29579 14.8929 3.29678 14.8886 3.29801C14.872 3.3027 14.8556 3.30803 14.8399 3.31459C14.8396 3.31471 14.8393 3.31477 14.839 3.31489C14.8221 3.32192 14.8059 3.33012 14.7902 3.33915C14.789 3.33985 14.7877 3.34026 14.7865 3.34096L5.26575 8.88252C5.22895 8.80407 5.16883 8.73557 5.08809 8.68893L4.56813 8.38864C4.35807 8.26711 4.08942 8.3393 3.96819 8.54954C3.8469 8.75971 3.91891 9.02848 4.12903 9.14977L4.4677 9.34536L4.01993 9.60481C3.81004 9.72645 3.73844 9.99534 3.85997 10.2053C3.94141 10.346 4.08889 10.4246 4.24042 10.4246C4.31512 10.4246 4.39083 10.4056 4.46014 10.3654L4.90587 10.1071V11.2402C4.90587 11.483 5.10251 11.6797 5.34508 11.6797C5.58766 11.6797 5.7843 11.483 5.7843 11.2402V10.1057L14.3113 15.0303C14.3021 15.1192 14.3193 15.2116 14.3674 15.295C14.4153 15.3782 14.4867 15.439 14.5682 15.4756V23.3936C14.5682 23.6363 14.7648 23.833 15.0074 23.833C15.2499 23.833 15.4466 23.6363 15.4466 23.3936V15.4758C15.5283 15.4394 15.6 15.3784 15.6482 15.2949C15.6963 15.2115 15.7135 15.1189 15.7042 15.0299L24.2297 10.1066C24.2308 10.106 24.2297 10.1066 24.2308 10.106V16.8457C24.2308 17.0885 24.4274 17.2852 24.67 17.2852C24.9126 17.2852 25.1092 17.0885 25.1092 16.8457V10.1081L25.5507 10.3648C25.6201 10.4051 25.696 10.4244 25.7709 10.4244C25.9223 10.4244 26.0696 10.346 26.1511 10.2056C26.273 9.99581 26.2017 9.72686 25.992 9.60493ZM15.0075 14.4176L6.22124 9.34336L14.5967 4.49122L14.6064 4.48559C14.6749 4.63911 14.8285 4.74622 15.0074 4.74622C15.1918 4.74622 15.3494 4.63243 15.4145 4.47124L15.4486 4.49104C15.4666 4.50153 15.485 4.51043 15.5037 4.51805L16.9192 5.34182C16.9334 5.3526 16.9482 5.36292 16.964 5.37211L17.4691 5.66579C17.4837 5.67434 17.4988 5.68137 17.514 5.68805L18.9446 6.52067C18.9573 6.52999 18.9705 6.53877 18.9844 6.54686L19.4895 6.84059C19.5 6.84668 19.5109 6.85143 19.5217 6.85653L20.9767 7.70338C20.9859 7.70965 20.9951 7.71598 21.0049 7.72167L21.51 8.01534C21.516 8.01885 21.5224 8.02131 21.5286 8.02454L23.014 8.88903C23.0178 8.89143 23.0214 8.89413 23.0253 8.89641L23.5304 9.19014C23.5324 9.19131 23.5345 9.19202 23.5365 9.19319L23.7943 9.34325L15.0075 14.4176Z" fill="black"/>
<path d="M9.82923 0.206897L9.57605 0.0596514C9.3664 -0.0623408 9.09751 0.00896777 8.97564 0.218792C8.85365 0.428558 8.92484 0.697562 9.1346 0.819495L9.38779 0.966741C9.45722 1.00711 9.53316 1.02633 9.6081 1.02633C9.75945 1.02633 9.90669 0.947991 9.98826 0.807659C10.1101 0.597835 10.0389 0.328831 9.82923 0.206897Z" fill="black"/>
<path d="M1.07269 11.8208C0.951054 11.6107 0.682401 11.5391 0.472518 11.6608L0.219159 11.8076C0.00921755 11.9292 -0.0623254 12.1981 0.059198 12.4081C0.140643 12.5488 0.288065 12.6274 0.439647 12.6274C0.514354 12.6274 0.590057 12.6083 0.659374 12.5681L0.912733 12.4213C1.12267 12.2997 1.19422 12.0308 1.07269 11.8208Z" fill="black"/>
<path d="M19.3184 1.2473C19.1968 1.03724 18.9281 0.965635 18.7182 1.08728L18.2114 1.38095C18.0014 1.50253 17.9298 1.77142 18.0514 1.98148C18.1329 2.12216 18.2803 2.20073 18.4319 2.20073C18.5066 2.20073 18.5823 2.18169 18.6516 2.1415L19.1584 1.84782C19.3683 1.72624 19.44 1.45735 19.3184 1.2473Z" fill="black"/>
<path d="M17.291 2.4221C17.1694 2.21204 16.9006 2.14044 16.6908 2.26208L16.184 2.55581C15.9741 2.67745 15.9025 2.94634 16.024 3.15634C16.1054 3.29702 16.2529 3.3756 16.4045 3.3756C16.4792 3.3756 16.5549 3.35655 16.6242 3.31636L17.131 3.02263C17.3409 2.90099 17.4125 2.6321 17.291 2.4221Z" fill="black"/>
<path d="M3.09961 10.646C2.97803 10.4359 2.70932 10.3643 2.49943 10.486L1.9926 10.7797C1.78266 10.9013 1.71111 11.1702 1.83264 11.3802C1.91402 11.521 2.0615 11.5995 2.21308 11.5995C2.28779 11.5995 2.36349 11.5804 2.43281 11.5402L2.93965 11.2465C3.14959 11.1249 3.22113 10.856 3.09961 10.646Z" fill="black"/>
<path d="M21.0922 0.21918C20.9706 0.00918022 20.7018 -0.0623627 20.492 0.0592779L20.2386 0.206172C20.0288 0.327813 19.9572 0.5967 20.0788 0.8067C20.1602 0.947325 20.3076 1.0259 20.4592 1.0259C20.5339 1.0259 20.6097 1.0068 20.679 0.966602L20.9323 0.819708C21.1422 0.698067 21.2138 0.42918 21.0922 0.21918Z" fill="black"/>
<path d="M15.0076 12.6562C14.765 12.6562 14.5684 12.8529 14.5684 13.0957V13.6816C14.5684 13.9244 14.765 14.1211 15.0076 14.1211C15.2502 14.1211 15.4468 13.9244 15.4468 13.6816V13.0957C15.4468 12.853 15.2502 12.6562 15.0076 12.6562Z" fill="black"/>
<path d="M15.0076 5.62506C14.765 5.62506 14.5684 5.82176 14.5684 6.06451V6.65045C14.5684 6.8932 14.765 7.0899 15.0076 7.0899C15.2502 7.0899 15.4468 6.8932 15.4468 6.65045V6.06451C15.4468 5.82176 15.2502 5.62506 15.0076 5.62506Z" fill="black"/>
<path d="M15.0076 7.96881C14.765 7.96881 14.5684 8.16551 14.5684 8.40826V8.9942C14.5684 9.23696 14.765 9.43365 15.0076 9.43365C15.2502 9.43365 15.4468 9.23696 15.4468 8.9942V8.40826C15.4468 8.16551 15.2502 7.96881 15.0076 7.96881Z" fill="black"/>
<path d="M15.0076 10.3126C14.765 10.3126 14.5684 10.5093 14.5684 10.752V11.338C14.5684 11.5807 14.765 11.7774 15.0076 11.7774C15.2502 11.7774 15.4468 11.5807 15.4468 11.338V10.752C15.4468 10.5093 15.2502 10.3126 15.0076 10.3126Z" fill="black"/>
</g>
<defs>
<clipPath id="clip0">
<rect width="30" height="30" fill="white"/>
</clipPath>
</defs>
</svg>
