<svg width="15" height="18" viewBox="0 0 15 18" fill="none" xmlns="http://www.w3.org/2000/svg">
<path d="M0.288767 11.2175L6.78428 17.713C6.96955 17.8983 7.21672 18 7.48555 18C7.74911 18 7.99614 17.8983 8.1814 17.713L14.6771 11.2175C15.0608 10.8337 15.0608 10.2089 14.6771 9.82537L14.0873 9.23532C13.902 9.0502 13.6549 8.94834 13.3912 8.94834C13.1276 8.94834 12.8719 9.0502 12.6868 9.23532L8.88897 13.025L8.88897 0.985317C8.88897 0.442684 8.46399 -5.68323e-07 7.92136 -6.15761e-07L7.08721 -6.88685e-07C6.54458 -7.36123e-07 6.07658 0.442683 6.07658 0.985316L6.07657 13.0677L2.25721 9.23532C2.07209 9.05019 1.8315 8.94834 1.56779 8.94834C1.30409 8.94834 1.06057 9.05019 0.875159 9.23532L0.287159 9.82536C-0.0966943 10.2091 -0.0952323 10.8337 0.288767 11.2175Z" fill="#FF5621"/>
</svg>
