<svg width="23" height="23" viewBox="0 0 23 23" fill="none" xmlns="http://www.w3.org/2000/svg">
<path d="M20.2055 2.49491C20.1585 2.493 20.1114 2.49269 20.0644 2.49401H18.2909V0.969896C18.2909 0.36025 17.709 0 17.0993 0H15.4644C14.8548 0 14.4114 0.36025 14.4114 0.969896V2.49396H7.76077V0.969896C7.76077 0.36025 7.31741 0 6.70776 0H5.07279C4.4632 0 3.88124 0.36025 3.88124 0.969896V2.49396H2.10778C0.975687 2.4624 0.0323646 3.35459 0.00080553 4.48663C-0.00052048 4.53363 -0.000202227 4.58073 0.00170723 4.62772V20.6446C0.00170723 21.8639 0.888436 23 2.10773 23H20.0644C21.2837 23 22.1705 21.8639 22.1705 20.6446V4.62772C22.2168 3.49616 21.337 2.54127 20.2055 2.49491ZM15.4644 1.10844H17.1825V4.15661H15.4644V1.10844ZM5.07284 1.10844H6.65239V4.15661H5.07284V1.10844ZM21.062 20.6446C21.062 21.2542 20.6741 21.8916 20.0644 21.8916H2.10778C1.49813 21.8916 1.1102 21.2542 1.1102 20.6446V8.8675H21.062V20.6446ZM21.062 4.62772V7.75906H1.11014V4.62772C1.0632 4.10951 1.44525 3.65135 1.96346 3.60441C2.01141 3.60006 2.05967 3.59943 2.10773 3.60245H3.88124V4.21209C3.88124 4.82174 4.46314 5.2651 5.07279 5.2651H6.70776C7.27381 5.28065 7.74523 4.83431 7.76077 4.26826C7.7613 4.24954 7.7613 4.23082 7.76077 4.21209V3.6024H14.4114V4.21204C14.3959 4.77809 14.8422 5.24951 15.4082 5.26505C15.427 5.26558 15.4457 5.26558 15.4644 5.26505H17.0994C17.709 5.26505 18.2909 4.82169 18.2909 4.21204V3.6024H20.0644C20.5838 3.56967 21.0313 3.96413 21.064 4.48345C21.067 4.5315 21.0664 4.57977 21.062 4.62772Z" fill="#808080"/>
<path d="M8.01024 16.4328L7.51145 19.2039C7.49172 19.3228 7.51124 19.4449 7.56709 19.5517C7.70897 19.8229 8.04387 19.9277 8.31507 19.7858L10.809 18.4834L13.303 19.7858L13.5524 19.8413C13.6726 19.8434 13.79 19.8042 13.8849 19.7304C14.0505 19.6094 14.1358 19.4069 14.1066 19.2039L13.6078 16.4328L15.6307 14.493C15.7755 14.3366 15.828 14.116 15.7693 13.9111C15.6946 13.7218 15.5265 13.5852 15.3259 13.5509L12.5548 13.1352L11.3078 10.6135C11.2534 10.5013 11.1629 10.4106 11.0506 10.3563C10.7751 10.2229 10.4437 10.3381 10.3102 10.6135L9.06325 13.1352L6.29216 13.5509C6.09156 13.5852 5.92342 13.7218 5.8488 13.9111C5.79008 14.116 5.84264 14.3366 5.98734 14.493L8.01024 16.4328ZM9.53436 14.1883C9.70838 14.1622 9.85584 14.0464 9.9223 13.8834L10.809 12.1099L11.6958 13.8834C11.7623 14.0464 11.9097 14.1622 12.0837 14.1883L14.0512 14.4654L12.6379 15.8232C12.5063 15.9535 12.4445 16.1387 12.4716 16.322L12.8041 18.2895L11.0584 17.3473L10.809 17.2919L10.5596 17.3473L8.8138 18.2895L9.14631 16.322C9.17347 16.1387 9.11168 15.9535 8.98003 15.8232L7.56677 14.4654L9.53436 14.1883Z" fill="#808080"/>
</svg>
