<svg width="200" height="27" viewBox="0 0 200 27" fill="none" xmlns="http://www.w3.org/2000/svg">
<path d="M152.613 10.5221C154.922 11.4238 158.02 11.7978 160.382 12.5231C163.09 13.3548 165.313 14.9753 165.303 18.7635C165.293 23.276 162.041 27.0215 155.607 26.9958C153.148 27.0157 149.835 26.0111 147.73 24.7353L147.199 18.4255L147.831 18.4279C148.646 22.8284 151.66 25.6226 156.032 25.6403C159.407 25.6542 162.102 24.082 162.721 21.076C163.566 16.9722 160.478 15.9629 159.692 15.6826C157.694 14.9675 154.64 14.5704 151.935 13.6743C149.02 12.7084 147.053 10.858 147.06 7.56471C147.072 2.90143 151.34 0.048739 156.824 0.088523C160.189 0.113088 162.924 1.22383 163.334 1.45026L163.762 6.98504H163.207C162.556 3.40581 159.771 1.35921 156.205 1.34506C152.306 1.32983 149.988 3.64986 149.676 5.86254C149.307 8.49202 150.825 9.82733 152.612 10.5248L152.613 10.5221ZM5.55025 10.5248C3.76266 9.82733 2.24613 8.49202 2.61545 5.86254C2.92735 3.64986 5.24662 1.32983 9.14412 1.34506C12.71 1.35921 15.4952 3.40581 16.146 6.98504H16.7009L16.2736 1.45026C15.8624 1.22357 13.126 0.112554 9.76259 0.088523C4.27967 0.0500741 0.0104407 2.90278 2.60226e-05 7.56471C-0.00825232 10.8577 1.95932 12.7084 4.87303 13.6743C7.57898 14.5704 10.6329 14.9675 12.6309 15.6826C13.4171 15.9629 16.5052 16.9722 15.6605 21.076C15.0412 24.0818 12.346 25.6542 8.97054 25.6403C4.59851 25.6226 1.58546 22.8284 0.769911 18.4279L0.13782 18.4255L0.668435 24.736C2.77247 26.0117 6.08594 27.0162 8.54621 26.9964C14.9804 27.0231 18.2329 23.2756 18.2423 18.764C18.2517 14.9758 16.0293 13.3553 13.3212 12.5236C10.959 11.7981 7.86178 11.4243 5.55186 10.5226L5.55025 10.5248ZM197.372 2.78502C197.372 1.04547 198.914 1.10876 199.935 1.10876V0.544304H191.651V1.10876C192.679 1.10876 194.219 1.04574 194.219 2.78502L194.213 24.3917C194.213 26.1323 192.672 26.0679 191.651 26.0679V26.6322H199.933V26.0679C198.905 26.0679 197.364 26.1323 197.364 24.3917L197.372 2.78502ZM124.931 4.394L133.012 26.6316H135.408L143.327 3.79964C144.178 1.34772 145.311 1.10689 146.942 1.10689V0.54377H139.09V1.10689C139.713 1.07984 140.337 1.12256 140.949 1.23425C142.048 1.50766 142.11 2.45501 142.022 3.10329C141.906 3.69787 141.737 4.2808 141.517 4.84498L135.199 23.2685H135.123L128.836 5.96641C128.472 5.05394 128.191 4.11053 127.996 3.14762C127.862 2.24113 128.186 1.66172 128.589 1.41048C128.983 1.16643 129.366 1.10902 130.324 1.10902V0.545904H121.192V1.10902C123.314 1.10902 124.069 2.02138 124.931 4.39535V4.394ZM59.9427 3.087C60.3307 2.00509 59.9298 1.46094 59.3306 1.24226C58.9287 1.13028 58.511 1.08571 58.0945 1.11036V0.546172H63.1427L71.5313 22.7849C72.4379 25.05 73.07 26.0709 75.3132 26.0709V26.6341H66.1803V26.0709C67.1382 26.0709 67.5213 26.0148 67.9107 25.7695C68.3113 25.5182 68.6269 24.9389 68.4819 24.0323C68.2742 23.0685 67.9806 22.1251 67.6047 21.2136L66.3042 17.7593H56.0986L54.4745 22.331C54.2469 22.8945 54.0709 23.4776 53.9487 24.0729C53.8528 24.7213 53.903 25.6675 54.9979 25.942C55.6085 26.0527 56.2295 26.0951 56.8496 26.0683V26.6314H49.0001V26.0683C50.6312 26.0683 51.7773 25.8114 52.651 23.3768L59.9413 3.08434L59.9427 3.087ZM65.8345 16.5127L61.091 3.90805H61.0152L56.5403 16.5127H65.8345ZM83.0252 14.7236V14.7926L93.5271 26.6309H99.0974V26.0667C97.9993 26.0667 96.3469 25.4721 94.6911 23.6123L87.4441 15.4655C92.072 14.9501 95.9764 12.5284 95.9764 7.60929C95.9764 3.45628 92.663 0.542968 86.4275 0.542968H76.6353V1.10742C77.6645 1.10742 79.2055 1.04307 79.2055 2.78369L79.1973 24.3904C79.1973 26.13 77.6562 26.0667 76.6353 26.0667V26.6309H84.9201V26.0667C83.8909 26.0667 82.3498 26.1297 82.3498 24.3904L82.3567 1.71967H84.3894C86.8873 1.71967 92.9081 1.59818 92.9081 7.85842C92.9081 14.363 86.8877 14.7236 84.3894 14.7236H83.0252ZM172.115 2.78342C172.115 1.04387 173.655 1.10715 174.676 1.10715V0.5427H166.392V1.10715C167.42 1.10715 168.962 1.04414 168.962 2.78342L168.954 24.3901C168.954 26.1307 167.413 26.0663 166.392 26.0663V26.6306H174.676V26.0663C173.647 26.0663 172.107 26.1307 172.107 24.3901L172.115 2.78342ZM185.859 23.9643L175.603 12.2897C175.603 12.2897 183.08 4.12193 183.877 3.26483C185.026 2.01737 186.186 1.10742 188.556 1.10742V0.542968H179.964V1.10742C180.208 1.10742 181.555 1.08392 182.002 1.24092C182.855 1.53891 182.97 2.39733 181.919 3.55027L172.736 13.5559V13.5898L184.083 26.6314H189.598V26.0683C188.359 26.0683 186.799 25.0331 185.859 23.9643ZM47.198 0.54377V1.10822C47.8208 1.08081 48.4446 1.12317 49.0579 1.23452C50.1575 1.50794 50.2661 2.45527 50.1797 3.10356C50.0694 3.69761 49.9059 4.28052 49.6911 4.84525L43.374 23.2687H43.3027L37.4868 5.96428C37.1448 5.05055 36.8874 4.10735 36.718 3.14655C36.6081 2.24007 36.9457 1.65932 37.3559 1.40833C37.7661 1.15735 38.1597 1.11036 39.0933 1.10822V0.54377H30.047V1.10822C32.1699 1.10822 32.8965 2.01925 33.6979 4.3924L35.884 10.9285L31.7271 23.268H31.6559L25.7486 5.96401C25.4015 5.05059 25.1383 4.10746 24.9624 3.14628C24.8478 2.2398 25.1832 1.65906 25.591 1.40807C25.9895 1.16376 26.3797 1.10795 27.3365 1.10795V0.543503H18.2338V1.10795C20.3565 1.10795 21.089 2.01899 21.9035 4.39214L29.4709 26.6309H31.8975L36.5291 12.8562L41.1345 26.6314H43.5623L51.4229 3.79938C52.2618 1.35787 53.4186 1.10795 55.0507 1.10795V0.543503L47.198 0.54377ZM111.036 0.0839844C119.562 0.0839844 122.946 7.3244 122.946 13.2192C122.946 20.1733 118.066 27.0001 110.472 27.0001C102.742 27.0001 98.4413 20.9391 98.4413 13.6244C98.4413 5.70874 104.278 0.0839844 111.036 0.0839844H111.036ZM102.983 19.2363C104.375 21.7886 106.356 23.686 108.594 24.6262C110.599 25.4513 112.845 25.4715 114.865 24.6826C119.826 22.6979 119.976 16.329 120.01 15.6361C120.268 10.4935 118.044 5.14269 113.948 2.91799C111.773 1.73809 108.42 1.2452 105.431 2.95537C103.295 4.17746 101.319 6.59307 101.058 11.2059C100.939 14.0096 101.606 16.7908 102.983 19.2358" fill="#0A273D"/>
</svg>
