<svg width="135" height="77" viewBox="0 0 135 77" fill="none" xmlns="http://www.w3.org/2000/svg">
<g clip-path="url(#clip0)">
<path d="M13.0059 41.1751H15.5554V46.0377H6.4873V41.1751H9.0253V38.3261H0.963867V41.1751H3.52887V55.4971H0.963867V58.3327H9.0253V55.4971H6.48537V48.852H15.5535V55.4971H13.0059V58.3327H21.0866V55.4971H18.5139V41.1751H21.0885V38.3261H13.0078L13.0059 41.1751ZM110.248 55.4971H102.303V48.8232H109.137V45.9992H102.301V41.1751H110.308V43.9125H113.124V38.3261H96.6538V41.1751H99.3403V55.4971H96.6538V58.3327H113.162V51.6664H110.25L110.248 55.4971ZM41.3674 51.6664H38.4553V55.4971H30.5096V48.8232H37.3464V45.9992H30.5096V41.1751H38.5189V43.9125H41.3347V38.3261H24.8647V41.1751H27.5512V55.4971H24.8627V58.3327H41.3674V51.6664ZM103.068 37.3386H108.844L107.367 35.5811H101.446L103.068 37.3386ZM129.225 46.8924C127.21 46.3187 125.787 46.4496 123.737 45.7663C121.885 45.1464 121.519 44.0107 121.519 43.258C121.519 42.5015 122.337 40.5399 125.245 40.5399C128.157 40.5399 130.062 42.461 130.17 44.1531L130.182 44.1454V44.1531H132.978V38.3204H130.273V39.5909L130.358 39.9874C130.338 39.9297 130.261 39.7699 129.976 39.4869C129.972 39.4811 129.972 39.4773 129.972 39.4715C129.114 38.7015 127.478 37.8622 125.019 37.8622C122.04 37.8622 118.53 39.7064 118.53 43.2715C118.53 46.7461 121.044 47.9588 123.177 48.5209C125.314 49.0869 126.404 49.0869 128.186 49.5681C129.964 50.0494 131.117 51.1197 131.117 52.7059C131.117 54.2074 130.192 56.1767 126.427 56.1767C122.657 56.1767 121.168 54.1477 120.732 51.2448L120.701 51.2583H118.04V58.3384H120.821V57.014L120.813 57.0044L120.713 56.6541C120.713 56.6541 120.813 56.8908 121.129 57.1103L121.156 57.1488C122.564 58.2268 124.412 58.9429 126.78 58.9429C129.422 58.9429 134.047 57.5896 134.047 52.7964C134.039 49.366 132.215 47.749 129.225 46.8905V46.8924ZM84.7217 55.4971V58.3327H92.8989V55.4971H90.2182V41.1751H92.8989V38.3261H85.5896L80.7489 50.0186L80.6486 50.5922L80.5522 50.009L75.7114 38.3242H68.4099V41.1732H71.0848V55.4952H68.406V58.3307H76.5774V55.4971H74.022V42.3263L74.0413 41.4562L74.2785 42.1492L79.8521 55.4606H81.4374L87.0302 42.1453L87.2347 41.4446L87.2655 42.2339V55.4971H84.7217ZM28.8664 29.9023V30.5568H31.6243C31.3514 30.3517 31.0888 30.1333 30.8374 29.9023H28.8664ZM103.147 29.9139H101.712C101.313 29.9909 101.018 30.3278 100.985 30.5568H103.145V29.912L103.147 29.9139ZM28.8664 32.4664H103.136V31.0804H55.3689C54.1481 31.6618 52.5994 31.6348 51.3922 31.0804H36.8893C35.52 31.681 33.9424 31.6772 32.5693 31.0862L28.8664 31.0766V32.4626V32.4664ZM49.7799 29.9023H38.5633C38.5247 29.9793 38.0117 30.4221 37.8034 30.5568H50.4934C50.2304 30.3678 49.9908 30.1481 49.7799 29.9023Z" fill="black"/>
<path d="M30.1398 24.7603C30.0023 25.1986 29.9289 25.6543 29.9219 26.1135C29.957 27.3588 30.4772 28.5412 31.3719 29.4097C32.2667 30.2781 33.4654 30.7641 34.7134 30.7643C35.9614 30.7646 37.1604 30.2791 38.0555 29.411C38.9505 28.5429 39.4712 27.3607 39.5069 26.1155C39.5069 25.5495 39.3912 25.0124 39.2099 24.5081C39.7614 24.4118 40.3014 24.2963 40.8337 24.1481C41.0844 24.0807 41.0748 23.9672 40.8781 23.9075C40.1684 23.69 39.4124 23.5225 38.6409 23.38C38.2006 22.7481 37.6138 22.2319 36.9304 21.8752C36.2471 21.5186 35.4874 21.3322 34.7163 21.3318C34.0992 21.3318 33.5167 21.457 32.9806 21.6687C32.9729 21.6649 32.9652 21.6533 32.9613 21.6495C32.8521 21.453 32.7901 21.2339 32.7801 21.0095C32.77 20.785 32.8123 20.5613 32.9034 20.3559C33.3914 19.5628 34.4733 19.2528 35.3624 19.1778C35.6613 19.1624 36.3787 19.197 36.4559 19.2817C36.6294 19.4203 36.9284 19.4704 37.2466 19.3587C37.5513 19.4742 37.6284 19.5647 37.9756 19.6725C41.0304 20.712 44.4132 21.2606 47.8306 20.635C48.3648 21.1393 48.6599 22.0248 49.034 22.637C49.1343 22.791 49.2558 22.5215 50.9394 22.4637C51.5334 22.4406 52.2624 22.4445 52.8969 22.4599C51.5855 22.61 50.4573 23.3454 49.7881 24.408C48.7351 24.7429 47.9232 25.0625 47.6184 25.2473C47.2443 25.4725 47.1749 25.5976 47.6184 25.7131C48.1546 25.8537 48.6753 25.9441 49.1941 26.0077C49.1594 26.2194 49.1285 26.4369 49.1285 26.6583C49.1285 27.7843 49.5766 28.8642 50.3743 29.6604C51.172 30.4566 52.2539 30.9039 53.382 30.9039C54.5101 30.9039 55.5919 30.4566 56.3896 29.6604C57.1873 28.8642 57.6354 27.7843 57.6354 26.6583C57.6354 25.9268 57.4329 25.2473 57.107 24.6467C57.6432 24.4542 58.2063 24.2424 58.8042 24.0114C59.267 24.1789 59.5814 24.4542 59.9131 24.8392C60.1831 25.1433 60.7944 25.024 61.157 24.9354C61.7452 24.7814 61.8359 24.3137 61.832 23.7804C61.832 23.5379 61.8436 23.2992 61.9593 23.1067C62.6478 21.5417 65.3999 21.3357 66.8116 20.9892C66.8116 20.9892 66.0729 21.8747 65.5503 22.071C65.4442 24.356 64.5667 26.3445 64.4607 28.5236C65.126 28.5506 65.0971 29.2936 65.2572 29.7171C65.072 30.1175 64.7519 29.7171 64.4607 29.8519C63.4501 29.2936 64.6998 28.3927 63.8744 27.7017C64.2986 25.8729 64.9929 24.0923 64.9351 22.1538C64.6709 22.1808 64.5687 22.4734 64.4587 22.6851C64.2717 24.5196 63.7413 26.1925 63.263 27.8903C63.4752 27.9962 63.8474 28.1021 63.8223 28.4216C63.182 28.8201 63.8474 29.4611 63.5812 29.9154H57.0144L56.2854 30.5699H66.3564L66.4529 30.2003C64.9679 28.6603 65.5272 26.3503 66.2157 24.5986L67.9437 22.2616C69.3804 21.7034 70.2579 19.9516 71.7738 19.3934C71.7738 20.1383 70.8423 20.4579 70.337 20.8814C69.8086 22.1288 68.1307 22.2616 67.8916 23.6438C68.528 24.3868 69.4827 24.8642 70.283 25.5553C71.1084 26.0616 70.8114 27.1222 71.4787 27.6535C71.5867 27.8133 71.4787 28.052 71.2897 28.1848C70.5897 28.3523 70.6109 28.8239 71.0332 29.2166C71.3032 29.4669 71.6118 29.7941 71.5771 29.9173H66.9292C66.9292 30.1291 67.1182 30.2099 67.3227 30.5718H92.9919C93.1848 30.2099 92.7663 29.7826 92.5869 29.4265C90.7741 28.7431 90.7837 27.0318 90.6777 25.1453C90.6969 25.0683 90.5735 24.8892 90.5928 24.5004C90.3228 24.2463 89.1309 21.2183 89.6729 18.8486L90.0682 18.069C90.4404 17.5357 90.0451 17.2508 90.3093 16.6945L95.7189 15.6512C95.8154 15.6011 95.7903 15.3817 95.6881 15.2816L94.0449 15.5857C92.7393 15.0371 90.8242 13.8243 89.5629 12.1785C89.9544 9.51042 89.7596 7.34672 89.4954 5.90297C90.2861 5.24847 90.9303 4.62862 90.9303 4.62862C91.4761 4.95587 91.5937 4.80187 91.6689 4.62477C91.5822 4.52467 90.7722 4.18202 90.9052 3.83167C91.4163 3.96642 91.5301 3.80857 91.6091 3.52367L91.2504 3.39662H91.2389L91.2967 3.20412C91.4009 2.99237 91.883 3.19257 92.0681 3.13867C92.3902 2.94232 92.0296 2.6478 92.1376 2.38215C91.3854 1.7469 90.0277 1.72765 89.2062 1.13667C88.9516 0.66312 88.8474 0.46292 88.5813 0.27042C88.3074 0.0779203 87.1156 -0.0318047 86.8938 0.0394203C86.6759 0.11642 86.2574 0.507195 86.2574 0.507195C85.403 0.68622 84.8881 0.410945 84.2999 0.0548203C84.2999 0.0548203 84.4252 0.72857 85.0983 1.01347C84.5043 1.25602 84.242 1.75652 84.1456 2.38407C83.3279 2.54962 83.297 3.36197 83.4031 3.73157C82.7339 4.13005 82.7994 4.65942 83.0367 5.19457C82.4388 5.59497 82.5294 6.17247 82.6992 6.6133C82.1977 6.9213 82.6992 7.77599 82.7763 8.27649C84.2169 7.98004 86.0163 11.1544 88.6006 11.5451C89.0866 9.27942 88.4772 8.1687 87.9179 7.05027C88.3383 6.8058 88.7954 6.46892 89.2389 6.11472C89.4974 7.54885 89.6825 9.62592 89.3932 11.9994C89.3739 11.9802 89.3547 11.9648 89.3431 11.9455C89.1811 11.9455 89.0191 11.8377 88.8879 11.7858C88.9149 11.8628 89.2119 12.3344 89.1522 12.421C89.1522 12.421 88.3152 12.9735 86.6547 12.2766C86.2111 13.3123 80.5102 15.8571 80.5102 15.8571C80.7224 17.4279 81.4707 18.4713 82.2421 19.3221C83.4667 20.2269 84.7743 20.6927 86.3191 21.0123C86.6431 21.8477 87.6884 24.6274 87.7848 25.074C87.8889 25.5206 88.1377 25.5206 88.1377 25.5206C88.2862 25.7208 88.7741 26.6063 88.8281 27.0318L88.9497 28.5333C89.0017 28.8759 89.4511 28.618 89.5359 28.9106L89.3277 29.9193L72.2502 29.9231C72.4893 28.7296 71.8799 27.6863 72.1962 26.6237C71.5096 25.4302 69.6466 24.6063 69.9629 23.0393C70.8693 21.7919 73.685 20.5753 73.0486 19.068C75.6078 17.7725 76.9578 19.9343 79.382 19.7745C80.2267 19.7283 81.1679 19.6359 81.9412 19.4088C80.9846 18.581 80.0705 17.3644 79.5884 16.2768C74.5085 18.3173 69.5675 19.9978 64.0595 21.1124L63.6352 20.9776C63.2167 21.0412 57.1494 22.4021 55.541 23.0278C55.1188 22.7743 54.6553 22.5964 54.1717 22.5022H54.3125C54.8274 22.5022 55.6143 22.2289 56.1717 22.0345C58.5284 21.1759 59.3962 17.8264 60.4531 15.6974C61.3788 19.0084 63.5272 19.2779 64.7731 18.8659L64.8888 19.9054C64.8888 19.9054 65.9765 19.8669 66.7942 19.5397C66.7113 19.3433 66.6014 18.8178 66.5242 18.1267C67.0199 17.8707 67.2879 17.684 67.5136 17.5531C67.5811 18.3385 67.6293 19.0796 67.394 19.4781L70.1982 18.7312C70.7381 16.3114 72.2039 12.9485 74.7939 10.4922C71.3167 9.11195 68.7112 10.6885 68.0497 11.3199C64.7769 12.3633 64.6458 16.8716 64.7442 18.4232C64.1772 18.5348 61.7973 19.3587 60.671 15.2469C61.3267 13.6684 62.5706 11.9128 63.9689 10.5441C64.0904 10.4421 63.9496 10.2804 63.6699 10.444C60.86 12.369 59.8321 15.757 58.322 18.6176C57.1379 20.3944 55.5391 21.3569 53.1419 21.2548C50.1487 21.2086 48.7004 18.0921 47.3292 16.0689C45.227 11.4739 39.7884 13.1236 35.7462 12.1419C35.5205 12.0264 35.0712 10.6981 34.427 10.7482C33.9699 10.7828 34.4 11.2525 34.1377 11.4104C33.6305 11.1986 33.2043 10.8271 32.5679 10.933C32.1687 11.0138 32.0607 11.4373 32.0896 11.8108C32.4078 13.2699 33.9757 13.909 35.1464 14.4403C35.5957 15.1102 35.4279 17.4241 35.0538 18.2191C34.5717 19.1046 32.6759 18.7889 32.2959 20.8179C32.2227 21.2298 32.3152 21.5879 32.4849 21.9247C31.7487 22.3112 31.1254 22.8816 30.6759 23.5802C29.8717 23.7727 29.0868 23.9883 28.3539 24.2501C28.1611 24.3194 28.1611 24.4311 28.4118 24.4888C28.9769 24.6043 29.5574 24.7006 30.1437 24.7737L30.1398 24.7603ZM90.0296 13.3989C90.7239 14.1554 92.3825 15.3047 93.4432 15.68L90.371 16.2479C90.7182 14.9485 89.534 14.45 90.0277 13.3989H90.0296ZM90.3614 2.88265C90.4771 2.83452 90.8011 2.95965 90.9342 2.9943C91.0152 3.01355 90.9843 3.1868 90.9438 3.3408C90.7432 3.38315 90.4308 3.27342 90.3884 3.16755C90.3305 3.05205 90.2495 2.9327 90.3633 2.88265H90.3614ZM90.3864 3.6719C90.425 3.89712 90.5176 4.15315 90.6507 4.34565C90.6468 4.4496 90.0779 4.97512 89.4222 5.52952C89.2602 4.7268 89.0943 4.17432 89.0557 3.95487C89.3161 3.77007 90.02 3.56987 90.3864 3.6719ZM87.4454 0.85562C87.5611 0.81712 87.7964 0.89412 87.86 0.94032C87.9236 0.988445 87.8716 1.18287 87.8677 1.24832C87.8677 1.31377 87.5746 1.45237 87.5746 1.45237C87.5746 1.45237 87.2969 1.24062 87.3007 1.17517L87.2872 1.1694C87.3327 1.06131 87.3855 0.956475 87.4454 0.85562ZM87.806 6.7904C87.4434 6.0589 87.1503 5.28505 87.2274 4.15315C87.5784 4.14737 88.0876 4.37645 88.7606 4.0723C88.7606 4.0723 88.9689 4.69985 89.1753 5.7278C88.6739 6.14552 88.1531 6.5517 87.806 6.7904ZM83.2064 19.5146C82.1071 18.9641 82.7917 19.4261 83.1099 19.1874C84.8514 19.9882 85.7289 19.8034 87.0326 19.6455C87.2197 19.8842 87.4762 20.1075 87.4762 20.4252C85.8813 20.8775 84.6412 20.2904 83.2044 19.5166L83.2064 19.5146ZM89.48 28.0809C89.3778 27.2377 89.3296 26.641 88.94 26.2387C88.6314 25.3994 87.7366 23.0663 87.1001 20.9642C87.4859 20.583 87.7848 20.7813 88.0413 21.8266C88.2862 22.6697 88.5813 23.3666 88.805 24.0711C89.102 24.7795 89.3257 25.7228 89.5533 26.2194C89.5533 26.2194 89.7539 26.2541 89.8657 26.5216C90.425 28.0809 90.5716 28.3311 90.4771 29.0742C90.6121 29.6575 91.4336 29.182 91.3584 29.9019H89.615L90.3826 29.8962C89.8542 29.3379 90.2283 28.5063 89.48 28.0809ZM55.4754 29.4765C54.9933 29.8365 54.4147 30.0656 53.7841 30.1387C53.7224 30.1195 53.6684 29.9943 53.6645 29.9173L53.5642 27.7479C53.5604 27.7248 53.5989 27.6997 53.6221 27.6901C53.6761 27.6709 53.8246 27.6131 53.8844 27.5785C53.9075 27.565 53.9673 27.5592 53.9866 27.5785L55.4137 29.2301C55.4639 29.2917 55.5102 29.4265 55.4716 29.4804L55.4754 29.4765ZM53.2692 30.1695C52.6906 30.1503 52.1506 29.9866 51.6742 29.7229C51.6357 29.669 51.6492 29.5266 51.6935 29.463L52.8854 27.6497C52.8969 27.6304 52.9432 27.6304 52.9702 27.6381C53.0204 27.6535 53.138 27.6863 53.2055 27.6959C53.2325 27.6959 53.2827 27.7344 53.2827 27.7594L53.3887 29.9347C53.3926 30.0117 53.3309 30.1464 53.2672 30.1657L53.2692 30.1695ZM50.2606 25.6515C50.1834 25.6284 50.0677 25.5245 50.0716 25.459C50.1815 25.1587 50.3223 24.8758 50.5055 24.6197C50.7948 24.537 51.0937 24.458 51.3927 24.381L52.3569 25.5938L52.3126 25.5996C51.6877 25.6766 51.1034 25.7151 50.5499 25.7228L50.2606 25.6458V25.6515ZM52.9741 23.1683C53.0319 23.1914 53.0898 23.3146 53.0898 23.3897L53.0994 23.5591C52.5209 23.6707 51.9539 23.7958 51.41 23.9344C51.3753 23.8632 51.3579 23.7804 51.3869 23.7419C51.8497 23.4282 52.3897 23.2357 52.9683 23.1702L52.9741 23.1683ZM52.6694 25.536L51.6897 24.3117C52.1641 24.1962 52.6424 24.0904 53.1207 23.996L53.1862 25.4302C52.9934 25.4764 52.8333 25.5072 52.6694 25.536ZM52.5768 25.921C52.5729 25.9345 52.5768 25.948 52.5691 25.9595C52.5228 26.0254 52.4809 26.0942 52.4437 26.1655C52.4322 26.1905 52.3859 26.2271 52.3569 26.2233L51.653 26.0308C51.9539 26 52.2605 25.973 52.5787 25.9191L52.5768 25.921ZM53.8747 25.6592C53.8632 25.6785 53.8169 25.6785 53.7899 25.6689H53.7802L53.8824 25.6458L53.8767 25.6573L53.8747 25.6592ZM53.4639 25.3609L53.3964 23.9421C53.9866 23.8305 54.5671 23.7381 55.1206 23.6726C55.114 23.7316 55.097 23.789 55.0704 23.842L54.1968 25.1664C53.9384 25.2434 53.6992 25.3012 53.4639 25.3589V25.3609ZM55.3019 23.9941C55.3404 23.9306 55.4639 23.8594 55.5294 23.8728C55.7802 24.0692 56.0116 24.2963 56.2044 24.5524C55.6837 24.7256 55.1437 24.8912 54.6076 25.0529L55.3019 23.9941ZM53.3733 23.5071L53.3694 23.3723C53.3656 23.2915 53.4273 23.149 53.489 23.1356C53.8554 23.1452 54.2026 23.2164 54.5304 23.3281C54.1447 23.3781 53.7629 23.4359 53.3733 23.5052V23.5071ZM53.3251 23.1317C53.3444 23.1317 53.3598 23.1259 53.3772 23.1259L53.4234 23.1298H53.3232L53.3251 23.1317ZM48.2761 25.5264C48.0871 25.4687 48.1314 25.4109 48.2452 25.3628C48.6252 25.2126 49.0514 25.0644 49.4988 24.92C49.3889 25.1664 49.3059 25.4244 49.2404 25.69C48.9147 25.6653 48.592 25.6112 48.2761 25.5283V25.5264ZM49.9057 26.075C50.1912 26.0904 50.4843 26.0866 50.7794 26.0808L52.2759 26.4908C52.2952 26.4966 52.3107 26.5409 52.3107 26.5678C52.3107 26.6256 52.3203 26.7796 52.3377 26.847C52.3377 26.8739 52.3184 26.8951 52.2952 26.9047L50.2992 27.7844C50.2259 27.8133 50.0812 27.8114 50.0369 27.7613C49.9125 27.4059 49.8461 27.0328 49.8402 26.6564C49.8402 26.4562 49.8672 26.2656 49.898 26.0789L49.9057 26.075ZM50.1275 28.0328L50.1217 28.0193C50.1217 28.0251 50.1256 28.0289 50.1275 28.0328ZM50.2355 28.233C50.2355 28.1675 50.3416 28.0674 50.4091 28.0366L52.4148 27.2012C52.4341 27.1896 52.4727 27.2204 52.4881 27.2397C52.5228 27.282 52.5749 27.3455 52.6231 27.3937C52.6462 27.4129 52.6655 27.4707 52.6539 27.4899L51.4582 29.311C51.4158 29.3764 51.2847 29.4457 51.2229 29.4265C50.8098 29.107 50.4737 28.6992 50.2394 28.233H50.2355ZM51.4254 29.5862C51.4062 29.5728 51.3927 29.5612 51.3753 29.5516L51.4274 29.5843L51.4254 29.5862ZM53.3733 30.1753H53.3714H53.3733ZM55.8804 29.1416C55.8226 29.1762 55.6779 29.1031 55.6239 29.0453L54.2026 27.3956C54.1833 27.3802 54.1987 27.3378 54.2142 27.3128C54.2523 27.2562 54.2864 27.197 54.3164 27.1357C54.3299 27.1107 54.3742 27.0741 54.4032 27.078L56.5053 27.6593C56.5709 27.6786 56.6789 27.7498 56.702 27.8133C56.5227 28.3138 56.2488 28.772 55.8804 29.1416ZM56.8409 27.3321C56.8062 27.3898 56.648 27.4091 56.5709 27.3898L54.4784 26.8123C54.4533 26.8065 54.4398 26.7623 54.4398 26.7353C54.44 26.6549 54.4348 26.5745 54.4244 26.4947C54.4186 26.4677 54.434 26.41 54.4572 26.3984L56.4899 25.6284C56.5612 25.6015 56.702 25.615 56.7502 25.6631C56.8409 25.9788 56.9045 26.3041 56.9045 26.6506C56.9045 26.8816 56.8794 27.1126 56.837 27.334L56.8409 27.3321ZM56.5709 25.1664C56.5709 25.2338 56.4648 25.3397 56.3934 25.3686L56.5284 25.3224L54.3627 26.1347C54.3395 26.1443 54.3048 26.1155 54.2894 26.0962C54.2415 26.0311 54.19 25.9688 54.1351 25.9095C54.11 25.8902 54.0927 25.8363 54.1023 25.8132L54.2894 25.5303C54.9489 25.357 55.6587 25.1337 56.4108 24.8758C56.4687 24.972 56.5265 25.0683 56.5728 25.1684L56.5709 25.1664ZM62.2216 22.0672C61.2804 22.7448 61.724 23.5437 61.1416 23.7034C60.9294 23.6726 59.7453 23.8882 59.5602 23.9729C59.1609 23.6014 58.754 23.2876 58.1407 23.1259C59.3075 22.6485 61.157 22.175 62.2216 22.0672ZM58.3934 23.7516C58.1909 23.8478 57.6509 24.0557 56.9238 24.3098C56.7428 24.0383 56.5304 23.7889 56.2912 23.5668C57.2015 23.5186 57.944 23.5668 58.3934 23.7516ZM68.5531 11.8589C67.1298 13.2873 67.313 15.4202 67.4789 17.0988C67.151 17.3375 66.746 17.5377 66.4837 17.684C66.3294 15.6242 66.5512 12.5519 68.555 11.8589H68.5531ZM32.9324 12.5827C32.6932 12.2632 32.3422 11.7742 32.6142 11.4412C32.8147 11.1948 33.2236 11.3873 33.4627 11.4951C33.6652 11.601 35.2602 12.4576 35.6941 12.5769C38.9148 13.3777 42.9841 12.1977 45.5375 14.5077C45.6629 14.6232 45.7535 14.7329 45.7265 14.8927C41.9793 12.344 36.3382 16.1132 32.9343 12.5827H32.9324ZM35.9641 16.6984C36.2302 16.8581 36.3363 17.2816 36.6294 17.5203C37.1077 18.3173 38.0122 18.5829 38.4905 19.2721C38.329 19.2848 38.1664 19.2731 38.0084 19.2374C37.6959 19.1758 37.5725 19.0834 37.3102 18.9679C37.1714 18.7427 36.8223 18.6676 36.5484 18.8139C36.3305 18.8524 35.7269 18.8236 35.3257 18.7177C35.4029 18.0786 36.02 17.4664 35.9622 16.6964L35.9641 16.6984ZM32.2149 23.5706L33.1947 24.6582C32.4849 24.6525 31.8003 24.6197 31.1504 24.5755C31.1002 24.5062 31.0732 24.4407 31.0867 24.4022C31.2121 24.1404 31.3644 23.8979 31.5399 23.6707C31.7579 23.6322 31.9874 23.6033 32.2149 23.5745V23.5706ZM38.0238 23.8401C38.1434 24.0134 38.2398 24.1982 38.3324 24.3887C37.8502 24.46 37.3372 24.5139 36.7972 24.5562L37.5629 23.9017C37.7557 23.7477 37.9737 23.7804 38.0219 23.8401H38.0238ZM37.3488 23.6707L36.2611 24.5947C35.9834 24.614 35.7018 24.6217 35.4183 24.6332L35.8619 23.3743C36.4134 23.3935 36.9496 23.432 37.4491 23.4821C37.4259 23.5494 37.4067 23.6168 37.3527 23.6707H37.3488ZM37.0827 29.3398C36.6969 29.6209 36.2611 29.8288 35.7905 29.9616C35.7057 29.9501 35.5437 29.8192 35.4974 29.6267L35.0731 27.3301C35.0654 27.3013 35.0769 27.2647 35.1059 27.2531C35.1871 27.2268 35.2649 27.1906 35.3373 27.1453C35.3624 27.1261 35.3952 27.1396 35.4144 27.1607L36.9862 28.8855C37.1405 29.0665 37.1347 29.2744 37.0827 29.3379V29.3398ZM33.7539 25.2781C33.7732 25.2973 33.7809 25.3397 33.7636 25.3628C33.7154 25.4205 33.698 25.4398 33.6594 25.511C33.6459 25.538 33.6132 25.5418 33.5823 25.5303L31.8312 24.9066C32.3712 24.9374 32.915 24.9508 33.4569 24.9508L33.7539 25.2781ZM35.4897 25.1915C35.4369 25.1431 35.3787 25.1011 35.3161 25.0663C35.2852 25.0509 35.2775 25.0278 35.2891 24.9951L35.3219 24.9066L35.9313 24.8758L35.5649 25.1838C35.5456 25.203 35.5147 25.2107 35.4916 25.1915H35.4897ZM35.075 24.6428C34.9207 24.6467 34.7742 24.6563 34.6237 24.6582H34.616L34.3749 23.3685C34.4521 23.3646 34.5196 23.355 34.5948 23.3492C34.913 23.3492 35.2235 23.3608 35.5359 23.3685L35.0731 24.6448L35.075 24.6428ZM34.0567 23.3877L34.292 24.6582C34.0702 24.6621 33.8484 24.6621 33.6228 24.6582L32.5814 23.5225C33.0597 23.4647 33.5495 23.4205 34.0567 23.3877ZM34.3171 24.947C34.3113 24.9547 34.3171 24.9701 34.3055 24.9739C34.2246 25.0028 34.147 25.0403 34.0741 25.0856C34.0471 25.1048 34.0162 25.0914 33.9969 25.0702L33.8889 24.9508C34.0317 24.947 34.1782 24.9508 34.319 24.9451L34.3171 24.947ZM30.9999 24.562C31.0057 24.5466 31.0192 24.5293 31.025 24.51C31.0182 24.5287 31.0098 24.5467 30.9999 24.5639V24.562ZM30.8206 25.1433C30.8649 25.0721 31.0713 24.9836 31.268 25.0471L33.4724 25.8325C33.4974 25.8402 33.5206 25.871 33.5148 25.8999C33.5022 25.9711 33.4958 26.0432 33.4955 26.1155C33.4955 26.1463 33.4704 26.1636 33.4434 26.1732L31.1407 26.6006C30.9132 26.6333 30.755 26.5236 30.7222 26.4466C30.7126 26.3311 30.6894 26.2233 30.6894 26.1078C30.6894 25.7747 30.7396 25.4533 30.8206 25.1414V25.1433ZM30.8592 27.2108C30.8669 27.1242 30.9999 26.9509 31.1986 26.9066L33.4936 26.487C33.5079 26.4838 33.5228 26.486 33.5356 26.4931C33.5484 26.5002 33.5582 26.5117 33.563 26.5255C33.5862 26.5909 33.5939 26.6217 33.6363 26.691C33.6498 26.718 33.6421 26.7449 33.617 26.768L31.7907 28.2349C31.5939 28.3831 31.3857 28.3504 31.3374 28.2926C31.1276 27.9564 30.9666 27.5922 30.8592 27.2108ZM31.4088 28.3966C31.3895 28.3716 31.3702 28.3485 31.3548 28.3196C31.3664 28.3427 31.3895 28.3716 31.4069 28.3966H31.4088ZM31.8389 28.9202C31.7964 28.8547 31.8273 28.6122 31.9893 28.4774L33.8137 27.0241C33.833 26.9971 33.8658 26.9913 33.8909 27.0144C33.9429 27.0626 34.0259 27.1242 34.0953 27.1627C34.1242 27.1781 34.1339 27.2012 34.1184 27.2358L33.3277 29.4342C33.2429 29.6555 33.0654 29.7422 32.9864 29.7268C32.5608 29.5249 32.1733 29.2514 31.8408 28.9183L31.8389 28.9202ZM33.1754 29.8211C33.1508 29.8128 33.1269 29.8025 33.104 29.7903L33.1734 29.8211H33.1754ZM33.7269 29.9943C33.6537 29.9501 33.5534 29.7518 33.6151 29.5554L34.4135 27.3494C34.4212 27.3205 34.4482 27.3013 34.4772 27.307C34.5485 27.3205 34.6122 27.3263 34.6951 27.3263C34.7279 27.3263 34.7472 27.3532 34.7529 27.384L35.183 29.6844C35.2177 29.9058 35.1155 30.0502 35.0384 30.0964C34.9304 30.1041 34.8224 30.1291 34.7105 30.1291C34.3692 30.1291 34.0452 30.0771 33.7308 29.9943H33.7269ZM37.5262 28.9741C37.5455 28.9548 37.5648 28.9356 37.5764 28.9163C37.5571 28.9356 37.5436 28.9548 37.5262 28.9741ZM37.667 28.8105C37.5957 28.8547 37.3681 28.8393 37.2234 28.6911L35.6632 26.9509C35.6439 26.9317 35.6362 26.8932 35.6574 26.8681C35.697 26.8224 35.7307 26.772 35.7577 26.718C35.7712 26.6891 35.804 26.6833 35.831 26.6987L38.0682 27.4918C38.2996 27.5823 38.3574 27.7652 38.3382 27.8383C38.1646 28.1918 37.9419 28.5191 37.6767 28.8105H37.667ZM38.342 27.8056C38.3748 27.7479 38.4114 27.6555 38.4481 27.5631C38.4155 27.6445 38.3801 27.7247 38.342 27.8037V27.8056ZM38.5985 27.0799C38.5677 27.153 38.3671 27.2608 38.1607 27.1954L35.9352 26.3984C35.9101 26.3907 35.8869 26.3599 35.8908 26.3311C35.9024 26.2579 35.9101 26.2233 35.9101 26.1443C35.9101 26.1135 35.9371 26.0962 35.9641 26.0866L38.3112 25.7208C38.5426 25.692 38.6892 25.8017 38.7123 25.8806C38.7162 25.9576 38.7316 26.0346 38.7316 26.1116C38.7316 26.4446 38.6814 26.7661 38.6024 27.078L38.5985 27.0799ZM38.5889 25.1125C38.5889 25.2049 38.4539 25.3705 38.2533 25.409L35.9197 25.7747C35.9055 25.7771 35.8909 25.7746 35.8783 25.7676C35.8656 25.7606 35.8558 25.7496 35.8503 25.7362C35.8261 25.6562 35.7938 25.5788 35.7539 25.5052C35.7346 25.4802 35.7423 25.4533 35.7635 25.4282L36.4578 24.8353C37.1212 24.7853 37.7789 24.7102 38.4307 24.614C38.4944 24.7776 38.5407 24.9412 38.585 25.1145L38.5889 25.1125ZM39.7904 23.9075C39.9408 23.9556 39.9929 24.0557 39.8019 24.1077C39.6014 24.1616 39.3584 24.2039 39.1269 24.2521C39.0402 24.048 38.9244 23.8613 38.8126 23.6746C39.1752 23.7439 39.5069 23.8189 39.7884 23.9056L39.7904 23.9075ZM35.9776 23.0547L36.074 22.7794C36.1589 22.56 36.344 22.4849 36.4289 22.4984C36.803 22.6774 37.1482 22.9103 37.451 23.1914C36.9611 23.128 36.469 23.0831 35.9757 23.0566L35.9776 23.0547ZM35.6729 22.227C35.7442 22.2789 35.8387 22.4868 35.7789 22.6793L35.6478 23.0451C35.291 23.0297 34.9381 23.0104 34.5813 23.0143C34.4887 23.0143 34.4019 23.0335 34.3074 23.0335L34.2168 22.5407C34.1821 22.3136 34.2882 22.1673 34.3672 22.1307C34.4829 22.1211 34.5909 22.0961 34.7047 22.0961C35.0403 22.0961 35.3604 22.148 35.6729 22.225V22.227ZM33.6093 22.2655C33.6961 22.2751 33.8639 22.4079 33.9082 22.6043L33.9661 22.918C33.7683 22.7361 33.5864 22.5378 33.4222 22.3251L33.6112 22.2674L33.6093 22.2655ZM33.4743 23.099C33.1002 23.1336 32.7279 23.176 32.3596 23.2337C32.2824 23.0836 32.2786 22.945 32.321 22.8949C32.5042 22.7602 32.7029 22.6408 32.9112 22.5369C33.077 22.7255 33.266 22.9142 33.4743 23.099ZM29.4204 24.1808C29.7213 24.073 30.0877 23.9729 30.4927 23.8767C30.3859 24.0743 30.2925 24.2788 30.2131 24.4888C29.9373 24.4561 29.6538 24.4253 29.4224 24.381C29.2257 24.3464 29.2739 24.2347 29.4224 24.1808H29.4204ZM100.209 12.7791C100.128 12.8464 100.101 12.9388 100.166 12.9523C100.29 12.9754 100.359 13.0178 100.502 13.1487C100.579 13.1872 100.56 13.0678 100.54 13.0024C100.463 12.8176 100.301 12.7059 100.213 12.7791H100.209Z" fill="black"/>
<path d="M97.3156 29.9137H93.524C93.4758 30.1697 93.7747 30.3565 93.9483 30.5547H98.089L99.2461 29.9926C99.4505 29.4921 99.0378 29.0494 99.0532 28.6451C99.1227 27.4401 98.4496 26.2389 98.0947 25.1359C98.3262 24.8914 98.6155 24.3274 98.9954 24.4775C99.8825 25.8558 100.046 27.6153 99.896 29.367C99.8054 29.8001 99.0668 30.1948 99.0899 30.6029C99.1034 30.7453 100.073 30.6837 100.475 30.343C100.546 30.0619 101.067 29.7154 101.234 29.675C101.42 29.1456 101.13 29.163 101.177 28.8434C101.269 28.622 101.146 26.235 100.98 25.979C100.918 25.9405 100.897 25.9405 100.893 25.9463C100.708 25.4727 101.159 24.747 101.341 24.2985L102.664 24.1791C102.505 23.0049 102.085 21.7844 101.819 20.5794C101.981 20.2983 102.274 20.0789 102.542 19.9191C103.936 19.0009 102.708 17.5206 102.662 16.3771C102.424 15.7842 101.607 15.3222 101.531 14.6677C101.701 14.7986 101.83 14.7447 101.867 14.7543C102.266 14.481 102.247 14.0864 102.048 13.5916C102.654 12.8717 103.024 12.5406 103.136 12.3115C103.097 11.709 102.127 10.81 101.558 10.81C101.223 10.9948 100.999 11.3683 100.382 11.8457C100.363 11.8707 99.6415 11.5954 99.4235 11.8264C99.2114 11.9997 99.2847 12.5579 99.6742 12.8601C99.626 13.0084 99.5817 13.0661 99.5007 13.2451C99.4582 13.3337 99.439 13.428 99.4949 13.48C99.6222 13.5955 99.6685 13.7745 99.5778 14.0498C99.4814 14.3424 99.8092 14.558 99.925 14.6003C99.9442 14.6061 99.9828 14.6465 100.021 14.6966C100.064 15.02 98.9645 15.6013 98.9645 15.8516C98.8777 16.6081 98.4052 16.533 97.9462 19.0182C98.0041 19.6207 97.9964 20.154 97.954 20.6294C97.3908 22.1155 96.9318 22.9722 96.55 24.0463C96.2337 24.9318 98.008 27.4959 98.035 29.2438C97.6493 29.8213 97.3407 29.7385 97.3156 29.9118V29.9137ZM100.195 27.2514C100.104 27.0147 100.029 26.6797 100.075 26.4314C100.23 26.2832 100.519 26.3929 100.666 26.3698C100.845 27.1975 100.889 27.313 100.197 27.2553L100.195 27.2514ZM100.208 15.0142C100.259 14.9757 100.305 14.8525 100.334 14.8082C100.918 14.4348 100.515 14.7043 99.9346 14.3982C99.7456 14.302 99.7417 14.121 99.7649 13.865C99.7996 13.5474 99.6685 13.4858 99.6183 13.3837C99.599 13.3414 99.6897 13.1855 99.7649 13.0757C99.8999 12.8717 100.021 12.4482 100.085 12.3442C101.053 12.3827 100.837 12.8101 100.862 12.8871C100.939 13.095 101.344 13.5416 101.543 13.6821C101.485 14.2673 101.026 13.9227 101.231 14.456C101.177 15.4685 99.9712 15.3415 99.4563 16.1731C99.4042 15.3492 100.131 15.3511 100.208 15.0123V15.0142ZM99.1092 19.3724C99.3715 19.6092 99.6492 19.9076 99.8497 19.9576C99.9886 20.3041 99.5605 20.3522 99.4062 20.5159C99.0455 20.5698 98.9105 20.1886 98.7003 20.3619C98.6521 20.4004 98.4361 20.3561 98.44 20.3137C98.5557 20.0057 98.8778 19.563 99.1073 19.3705L99.1092 19.3724ZM96.8238 24.5314C96.6888 23.8307 97.6223 22.7412 98.2433 20.6044C98.4978 20.5159 98.6328 21.0991 98.9954 20.8739C99.5547 20.8874 99.3155 22.3408 99.8362 21.4168C99.8247 21.0087 99.8131 20.5505 100.137 20.333C100.488 20.2521 100.716 20.4485 100.739 20.7565L100.199 21.5958C101.221 21.6343 99.871 23.2744 101.221 22.9741C101.177 23.5901 100.845 25.3168 100.608 25.2302C100.423 24.2735 100.272 24.6719 100.272 24.953C100.311 25.3245 100.303 25.6267 100.523 25.927C100.45 26.004 100.176 25.9963 100.099 26.0137C99.3348 24.926 99.3657 23.4342 98.8739 22.2522C98.791 22.2484 98.6868 22.3485 98.6907 22.4351C98.6328 23.1473 98.3551 24.1753 97.7688 24.5141C97.4024 24.7297 98.575 24.5988 97.6145 25.0492C97.981 25.2918 97.6435 25.621 97.2404 25.621C97.0398 25.1936 96.8855 24.8394 96.8258 24.5295L96.8238 24.5314ZM97.8363 26.8915C97.6975 26.7298 97.4834 26.262 97.3966 26.0599L97.9559 25.8289C98.1295 26.0214 98.303 26.3794 98.3281 26.6951C98.2028 26.7625 98.0292 26.878 97.8363 26.8915ZM79.8331 15.4185C79.7502 14.2827 80.2188 13.3202 79.6885 12.1075C79.6942 11.607 80.0452 11.222 79.9508 10.76L79.0887 10.9679C78.9575 11.9227 78.7994 12.2384 78.9286 13.1373C79.1562 14.1672 79.2719 15.1047 79.8312 15.4204L79.8331 15.4185ZM70.927 18.5947C74.2248 17.6707 76.5005 16.8815 79.2333 15.7361C78.0955 13.3106 78.3462 12.6099 78.4426 11.0583C78.4426 11.0583 77.054 11.0776 75.4398 10.6502C73.5267 11.8822 71.2934 16.2905 70.927 18.5928V18.5947ZM82.2438 19.2973C82.0664 19.1241 82.3287 19.4013 82.2438 19.2973V19.2973ZM86.207 11.9438C84.8185 10.989 83.7423 8.76759 82.2284 8.91774C82.0818 7.28149 81.3663 4.50371 83.6305 1.57386C83.9236 1.43911 84.4019 1.38714 84.587 1.17346C83.6613 1.07721 82.4425 1.64894 81.5592 1.14844C81.5592 1.14844 81.968 1.86069 82.4425 1.96849C82.13 2.39199 81.5245 2.69421 81.8928 3.43149C81.1368 3.88001 81.4222 4.55184 81.6556 4.91374C81.2776 5.30259 81.0481 6.00136 81.5495 6.42679C80.9324 7.08706 81.698 7.64724 81.8774 7.87054C81.565 8.53081 81.8658 9.04094 81.8658 9.04094C81.8543 9.51641 81.0057 10.1959 80.699 10.4154C80.3326 11.5319 80.4734 13.7784 80.5293 15.2664C82.5929 14.2808 84.6179 13.3414 86.207 11.9419V11.9438ZM62.4856 51.4102C62.4856 50.2359 61.7007 48.8499 60.6226 48.1993C60.3591 48.0397 60.062 47.9434 59.7547 47.9182C60.017 47.9336 60.3719 47.9144 60.7055 47.7758C60.7166 47.7714 60.7283 47.7688 60.7402 47.7681C61.8318 47.283 63.1548 45.872 63.1548 43.4946C63.1548 41.7371 62.3969 40.3183 61.1105 39.3847C59.9071 38.5146 58.48 38.3183 57.0547 38.3183H45.8305V41.1673H48.3569V55.5181H45.8305V58.3556H53.8012V55.5162H51.3076V49.1945H56.8175C58.7172 49.2176 59.452 50.465 59.4905 51.5372L59.6294 58.3517H65.1374V55.5181H62.5627L62.4856 51.4121V51.4102ZM57.4135 46.4437H51.3095V41.1692H57.0856C57.6835 41.1692 58.4279 41.1499 59.0084 41.4445C59.7181 41.8044 60.3835 42.5802 60.3835 43.8469C60.3835 45.3099 59.0412 46.4456 57.4135 46.4456V46.4437ZM44.8334 65.4011H41.0283V76.8491H42.7255V71.8941H44.6077C47.3463 71.8941 48.5902 70.4889 48.5902 68.6909C48.5902 66.8776 47.4138 65.3992 44.8334 65.3992V65.4011ZM44.764 70.4196H42.7293V66.8776H44.8353C46.3782 66.8776 46.841 67.7823 46.841 68.6178C46.841 69.7631 46.031 70.4196 44.7659 70.4196H44.764ZM55.1879 65.3337L50.1119 76.8452H51.944L53.3326 73.4707H58.3565L59.7933 76.8452H61.664L56.3797 65.3337H55.184H55.1879ZM53.9922 71.9942L55.7587 67.4705L57.6622 71.9942H53.9903H53.9922ZM79.0482 65.4011H80.7453V76.8491H79.0482V65.4011ZM87.802 68.0865C87.802 67.278 88.6274 66.7255 89.7768 66.7255C90.6254 66.7255 91.6533 66.995 92.7121 67.919V66.0517C91.8752 65.5325 90.9107 65.2546 89.9253 65.249C87.6342 65.249 86.1318 66.4367 86.1318 68.3021C86.1318 71.4398 91.5376 71.7093 91.5376 74.077C91.5376 74.7123 90.8973 75.517 89.503 75.517C88.2725 75.517 87.1231 74.9279 86.2051 73.8615V75.9405C87.2504 76.6623 88.3458 76.9992 89.7035 76.9992C91.7189 76.9992 93.202 75.6864 93.202 73.8942C93.2097 70.2502 87.802 70.2848 87.802 68.0845V68.0865ZM73.0484 74.5814C72.1285 73.1569 71.4592 72.0982 70.3677 71.409C71.654 70.9239 72.3772 69.9306 72.3772 68.6081C72.3772 66.6292 70.8575 65.403 68.4237 65.403H65.3842V76.851H67.1142V71.8787H67.8393C68.7226 71.8787 69.4458 72.1482 71.035 74.4967L72.5527 76.8491H74.5835L73.6906 75.517C73.4672 75.2116 73.253 74.8996 73.0484 74.5814ZM68.227 70.4042H67.118V66.8102H68.2289C69.9067 66.8102 70.5779 67.4647 70.5972 68.5388C70.6107 69.5013 70.0842 70.4022 68.2289 70.4022L68.227 70.4042Z" fill="black"/>
</g>
<defs>
<clipPath id="clip0">
<rect width="135" height="77" fill="white"/>
</clipPath>
</defs>
</svg>
