<svg width="208" height="50" viewBox="0 0 208 50" fill="none" xmlns="http://www.w3.org/2000/svg">
<path d="M185.699 15.9911L185.323 16.1149C183.86 12.9671 181.77 10.4612 179.054 8.59737C176.379 6.73354 173.014 5.80163 168.96 5.80163C166.703 5.80163 164.55 6.27793 162.502 7.23052C160.454 8.14176 158.657 9.44645 157.111 11.1446C155.606 12.8014 154.394 14.8102 153.474 17.171C152.555 19.5319 152.095 22.1413 152.095 24.9992C152.095 27.857 152.555 30.4664 153.474 32.8273C154.394 35.1882 155.606 37.2177 157.111 38.9158C158.657 40.5726 160.454 41.8566 162.502 42.7678C164.55 43.679 166.703 44.1345 168.96 44.1345C172.972 44.1345 176.232 43.5133 178.74 42.2707C181.29 40.9868 183.442 39.0401 185.198 36.4308L185.574 36.5546L185.449 40.5308C184.488 41.5248 183.38 42.4153 182.126 43.2022C180.872 43.9478 179.514 44.5898 178.051 45.1282C176.63 45.6252 175.146 45.998 173.6 46.2465C172.053 46.5367 170.507 46.6818 168.96 46.6818C165.742 46.6818 162.67 46.1641 159.744 45.1286C156.819 44.0931 154.248 42.6434 152.033 40.7796C149.818 38.8744 148.062 36.5963 146.767 33.9455C145.471 31.2533 144.823 28.2712 144.823 24.9991C144.823 21.727 145.471 18.7656 146.767 16.1148C148.062 13.4226 149.818 11.1238 152.033 9.21863C154.248 7.31335 156.819 5.86369 159.744 4.86963C162.67 3.83415 165.742 3.31641 168.96 3.31641C170.507 3.31641 172.053 3.44066 173.6 3.68916C175.146 3.93767 176.63 4.33116 178.051 4.86963C179.514 5.36666 180.872 6.00866 182.126 6.79563C183.38 7.54117 184.488 8.41097 185.449 9.40502L185.699 15.9911Z" fill="black"/>
<path d="M47.5463 27.8585C47.0868 28.0654 46.6479 28.3347 46.2297 28.6666C45.8115 28.9977 45.6024 29.4533 45.6024 30.0334V37.6752C43.5962 40.5331 41.0257 42.7489 37.891 44.3228C34.7563 45.8968 31.2872 46.6838 27.4838 46.6838C24.2655 46.6838 21.1935 46.166 18.2678 45.1305C15.3421 44.095 12.7716 42.6454 10.5564 40.7815C8.34125 38.8763 6.58581 36.5983 5.29011 33.9475C3.99449 31.2553 3.34668 28.2732 3.34668 25.0011C3.34668 21.729 3.99449 18.7676 5.29011 16.1168C6.58581 13.4245 8.34125 11.1258 10.5564 9.2206C12.7716 7.31531 15.3421 5.86565 18.2678 4.8716C21.1935 3.83611 24.2655 3.31836 27.4838 3.31836C29.0302 3.31836 30.5767 3.44262 32.1232 3.69114C33.6696 3.93965 35.1533 4.33313 36.5744 4.8716C38.0373 5.36863 39.3956 6.01063 40.6495 6.79761C41.9034 7.54315 43.011 8.41294 43.9724 9.40698L44.2235 15.9925L43.8474 16.1163C42.3845 12.9684 40.2947 10.4626 37.578 8.59877C34.9031 6.73492 31.5385 5.80299 27.4842 5.80299C25.2273 5.80299 23.0748 6.2793 21.0268 7.23191C18.9788 8.14315 17.1816 9.44783 15.6351 11.146C14.1304 12.8027 12.9184 14.8116 11.9989 17.1724C11.0794 19.5333 10.6196 22.1427 10.6196 25.0005C10.6196 27.817 11.0585 30.4056 11.9362 32.7665C12.8557 35.1274 14.0678 37.1569 15.5725 38.8551C17.1189 40.5118 18.9161 41.8165 20.9641 42.7692C23.0121 43.6803 25.1855 44.1359 27.4842 44.1359C31.8311 44.1359 35.5509 43.3076 38.6438 41.6509V30.0329C38.6438 29.4533 38.414 28.9977 37.9545 28.6661C37.5363 28.335 37.1183 28.0656 36.7006 27.858L36.7579 27.5478C36.9667 27.5857 37.3428 27.6269 37.8864 27.6716C38.43 27.7095 38.9943 27.7507 39.5792 27.7954C40.2061 27.7954 40.7913 27.7954 41.3346 27.7954C41.8782 27.7954 42.2753 27.7954 42.5257 27.7954C42.7765 27.7954 43.111 27.7954 43.5292 27.7954C43.9887 27.7954 44.4694 27.7954 44.9711 27.7954C45.4727 27.7575 45.9534 27.7162 46.4132 27.6716C46.8727 27.6337 47.2278 27.5924 47.4786 27.5478L47.5463 27.8585Z" fill="black"/>
<path d="M92.9561 4.62115C92.5379 4.82799 92.12 5.09733 91.7023 5.42919C91.2841 5.76028 91.0543 6.38156 91.013 7.29303C90.9748 8.28707 90.9331 9.55036 90.888 11.0829C90.888 12.5739 90.8689 14.2721 90.8307 16.1773C90.8307 18.0826 90.8116 20.1535 90.7733 22.3901C90.7733 24.6267 90.7733 26.9462 90.7733 29.3485C90.7351 32.0407 90.4006 34.3394 89.7699 36.2447C89.1429 38.1499 88.307 39.7445 87.2622 41.0285C86.2591 42.3125 85.1306 43.3273 83.8767 44.0728C82.6646 44.8184 81.4525 45.3775 80.2404 45.7503C79.0701 46.1647 77.9625 46.4132 76.9177 46.4958C75.8727 46.6201 75.0577 46.6822 74.4726 46.6822C72.0902 46.6822 69.7914 46.3716 67.5762 45.7503C65.361 45.1707 63.4175 44.218 61.7457 42.8924C60.0739 41.567 58.7364 39.8481 57.7333 37.7358C56.7302 35.6234 56.2287 33.0555 56.2287 30.0319C56.2287 27.6296 56.2287 25.2894 56.2287 23.0114C56.2287 20.692 56.2287 18.5382 56.2287 16.5501C56.2287 14.562 56.2096 12.781 56.1713 11.2071C56.1713 9.59176 56.1522 8.28707 56.114 7.29303C56.0758 6.38179 55.846 5.76051 55.4247 5.42919C55.0065 5.0981 54.5886 4.82875 54.1709 4.62115L54.2282 4.3109C54.437 4.34879 54.7715 4.39006 55.2317 4.4347C55.7333 4.4726 56.2348 4.51387 56.7364 4.55852C57.28 4.55852 57.8024 4.57746 58.3038 4.61536C58.8053 4.61536 59.1815 4.61536 59.4323 4.61536C59.683 4.61536 60.0592 4.61536 60.5607 4.61536C61.0623 4.57746 61.5847 4.55852 62.128 4.55852C62.6716 4.52063 63.1732 4.47935 63.6327 4.4347C64.1342 4.39681 64.4894 4.35554 64.6981 4.3109L64.7554 4.62115C64.2959 4.82799 63.8571 5.09733 63.4389 5.42919C63.0627 5.76028 62.8536 6.38156 62.8115 7.29303C62.7733 8.28707 62.7316 9.59176 62.6865 11.2071C62.6865 12.781 62.6865 14.562 62.6865 16.5501C62.6865 18.5382 62.6865 20.6919 62.6865 23.0114C62.6865 25.2894 62.6865 27.6296 62.6865 30.0319C62.6865 34.5465 63.7523 37.8807 65.8839 40.0344C68.0155 42.1882 71.1711 43.2651 75.3507 43.2651C76.5628 43.2651 77.9421 43.12 79.4885 42.8298C81.035 42.4988 82.477 41.8361 83.8144 40.8418C85.1937 39.8477 86.3431 38.4395 87.2626 36.6171C88.2239 34.7947 88.7045 32.3717 88.7045 29.3482C88.7045 26.0761 88.6854 23.2803 88.6472 20.9609C88.6472 18.6 88.6281 16.5912 88.5899 14.9344C88.5899 13.2363 88.5708 11.7866 88.5325 10.5854C88.4943 9.38432 88.4526 8.28674 88.4075 7.29269C88.3693 6.38145 88.1395 5.76017 87.7183 5.42885C87.3 5.09775 86.8821 4.8284 86.4644 4.6208L86.5218 4.31055C86.9813 4.39309 87.5037 4.47605 88.089 4.55943C88.6739 4.59733 89.2173 4.61628 89.7192 4.61628C90.1787 4.61628 90.7011 4.59733 91.2864 4.55943C91.9134 4.47689 92.4567 4.39393 92.9165 4.31055L92.9561 4.62115Z" fill="black"/>
<path d="M138.449 15.9911L138.073 16.1149C136.61 12.9671 134.521 10.4612 131.804 8.59737C129.129 6.73354 125.764 5.80163 121.71 5.80163C119.453 5.80163 117.301 6.27793 115.253 7.23052C113.205 8.14176 111.407 9.44645 109.861 11.1446C108.356 12.8014 107.144 14.8102 106.225 17.171C105.305 19.5319 104.845 22.1413 104.845 24.9992C104.845 27.857 105.305 30.4664 106.225 32.8273C107.144 35.1882 108.356 37.2177 109.861 38.9158C111.407 40.5726 113.205 41.8566 115.253 42.7678C117.301 43.679 119.453 44.1345 121.71 44.1345C125.723 44.1345 128.983 43.5133 131.49 42.2707C134.04 40.9868 136.192 39.0401 137.948 36.4308L138.324 36.5546L138.199 40.5308C137.238 41.5248 136.13 42.4153 134.876 43.2022C133.622 43.9478 132.264 44.5898 130.801 45.1282C129.38 45.6252 127.896 45.998 126.35 46.2465C124.803 46.5367 123.257 46.6818 121.71 46.6818C118.492 46.6818 115.42 46.1641 112.494 45.1286C109.569 44.0931 106.998 42.6434 104.783 40.7796C102.568 38.8744 100.812 36.5963 99.5168 33.9455C98.2211 31.2533 97.5732 28.2712 97.5732 24.9991C97.5732 21.727 98.2211 18.7656 99.5168 16.1148C100.812 13.4226 102.568 11.1238 104.783 9.21863C106.998 7.31335 109.569 5.86369 112.494 4.86963C115.42 3.83415 118.492 3.31641 121.71 3.31641C123.257 3.31641 124.803 3.44066 126.35 3.68916C127.896 3.93767 129.38 4.33116 130.801 4.86963C132.264 5.36666 133.622 6.00866 134.876 6.79563C136.13 7.54117 137.238 8.41097 138.199 9.40502L138.449 15.9911Z" fill="black"/>
<path d="M204.596 45.6265C204.387 45.5886 204.032 45.5474 203.53 45.5027C203.071 45.5027 202.569 45.4838 202.025 45.4459C201.482 45.4459 200.959 45.4269 200.458 45.389C199.999 45.389 199.643 45.389 199.393 45.389C199.142 45.389 198.766 45.389 198.264 45.389C197.763 45.389 197.24 45.389 196.697 45.389C196.195 45.4269 195.694 45.4682 195.192 45.5129C194.733 45.5508 194.377 45.592 194.127 45.6367L194.069 45.3878C194.488 45.1809 194.906 44.9116 195.323 44.5797C195.741 44.2486 195.971 43.6274 196.012 42.7159C196.051 41.7218 196.07 40.6864 196.07 39.6095C196.108 38.5326 196.127 37.3107 196.127 35.9439C196.127 34.5771 196.127 33.0239 196.127 31.2843C196.127 29.5034 196.127 27.4117 196.127 25.0094C196.127 22.6071 196.127 20.5155 196.127 18.7345C196.127 16.9535 196.127 15.3796 196.127 14.0128C196.127 12.646 196.108 11.4448 196.07 10.4093C196.07 9.33245 196.051 8.297 196.012 7.30294C195.974 6.39172 195.744 5.77043 195.323 5.4391C194.905 5.06633 194.487 4.77654 194.069 4.5697L194.127 4.3208C194.377 4.40334 194.733 4.46547 195.192 4.50719C195.694 4.50719 196.195 4.52614 196.697 4.56403C197.24 4.60193 197.763 4.62088 198.264 4.62088C198.766 4.62088 199.142 4.62088 199.393 4.62088C199.643 4.62088 199.999 4.62088 200.458 4.62088C200.96 4.58298 201.482 4.56403 202.025 4.56403C202.569 4.52614 203.071 4.48486 203.53 4.44021C204.032 4.40232 204.387 4.36105 204.596 4.31641L204.653 4.56528C204.193 4.77213 203.755 5.06194 203.336 5.43471C202.96 5.76581 202.751 6.38709 202.709 7.29854C202.671 8.29259 202.629 9.32805 202.584 10.4049C202.584 11.4404 202.584 12.6416 202.584 14.0084C202.584 15.3752 202.584 16.9491 202.584 18.7301C202.584 20.5111 202.584 22.6027 202.584 25.005C202.584 27.4073 202.584 29.499 202.584 31.2799C202.584 33.0195 202.584 34.5727 202.584 35.9395C202.584 37.3063 202.584 38.5282 202.584 39.6051C202.622 40.682 202.664 41.7175 202.709 42.7115C202.747 43.6227 202.956 44.244 203.336 44.5753C203.755 44.9064 204.193 45.1758 204.653 45.3834L204.596 45.6265Z" fill="black"/>
</svg>
