<svg width="116" height="79" viewBox="0 0 116 79" fill="none" xmlns="http://www.w3.org/2000/svg">
<path d="M106.774 78.2207C101.385 78.2207 98.1889 75.4631 97.9443 71.4911H103.097C103.097 72.8151 103.831 74.5776 107.018 74.6873C109.228 74.6873 110.451 73.3633 110.451 72.3682C110.206 70.8249 108.241 70.7153 106.285 70.378C104.075 70.0575 102.363 69.6106 101.132 69.0624C99.4201 68.1769 98.4335 66.2964 98.4335 64.3146C98.4335 60.7812 101.385 58.0236 106.529 58.0236C111.437 58.0236 114.625 60.5619 114.861 64.4242H109.961C109.961 63.4376 109.717 61.7763 106.774 61.7763C104.809 61.7763 103.586 62.1051 103.341 63.5388C103.341 65.529 107.507 65.4193 110.695 66.1867C113.638 66.9626 115.603 68.8347 115.603 71.4911C115.603 76.3486 111.682 78.2207 106.774 78.2207Z" fill="black"/>
<path d="M12.8818 45.6321L29.7985 35.8076L38.8725 51.375H16.0695" fill="black"/>
<path d="M48.4551 77.6348V57.9858V77.6348Z" fill="black"/>
<path d="M48.4551 77.6348V57.9858" stroke="black" stroke-width="4.95016"/>
<path d="M5.03004 68.1025C5.03004 71.189 7.72862 73.7273 10.6633 73.7273C13.8594 73.7273 16.305 71.189 16.305 68.1025C16.305 65.1256 13.8594 62.4776 10.6633 62.4776C7.72862 62.4776 5.03004 65.1256 5.03004 68.1025ZM10.4188 78.2559C5.03004 78.2559 0.375 73.7273 0.375 68.1025C0.375 62.4776 5.03004 58.0587 10.4188 58.0587C12.6282 58.0587 14.5931 58.6153 16.305 59.8212V58.278H21.2131V77.8089H16.305V76.5945C14.8377 77.6993 12.6282 78.2559 10.4188 78.2559Z" fill="black"/>
<path d="M75.8949 51.3711L52.3584 10.3193L69.275 0.385281L98.6976 51.3711" fill="black"/>
<path d="M27.5886 68.1025C27.5886 71.189 30.0427 73.7273 33.2303 73.7273C36.165 73.7273 38.8721 71.189 38.8721 68.1025C38.8721 65.1256 36.165 62.4776 33.2303 62.4776C30.0427 62.4776 27.5886 65.1256 27.5886 68.1025ZM32.9858 78.2559C27.3441 78.2559 22.9336 73.7273 22.9336 68.1025C22.9336 62.4776 27.3441 58.0587 32.9858 58.0587C35.1868 58.0587 37.1517 58.6153 38.8721 59.8212V51.5484H43.7717V77.8089H38.8721V76.5945C37.1517 77.6993 35.1868 78.2559 32.9858 78.2559Z" fill="black"/>
<path d="M32.7441 28.0855L49.9054 18.3791L68.787 51.3691H50.8836V56.2266H45.984V51.3691" fill="black"/>
<path d="M112.424 56.3809C111.193 56.3809 109.97 55.2761 109.97 53.9521C109.97 52.6282 111.193 51.5234 112.424 51.5234C113.891 51.5234 114.878 52.6282 114.878 53.9521C114.878 55.2761 113.891 56.3809 112.424 56.3809ZM112.424 51.8607C111.193 51.8607 110.459 52.8474 110.459 53.9521C110.459 55.0569 111.193 56.052 112.424 56.052C113.647 56.052 114.38 55.0569 114.38 53.9521C114.38 52.8474 113.647 51.8607 112.424 51.8607Z" fill="black"/>
<path d="M112.929 55.2832L112.44 54.1785H111.951V55.2832H111.58V52.6352H112.685C112.929 52.6352 113.418 52.9725 113.418 53.4111C113.418 53.8496 113.174 54.0688 112.929 54.1785L113.418 55.2832H112.929ZM112.44 52.9725H111.951V53.8496H112.44C112.929 53.8496 112.929 53.74 112.929 53.4111C112.929 53.1834 112.929 52.9725 112.44 52.9725Z" fill="black"/>
<path d="M80.0408 68.1025C80.0408 71.189 82.4948 73.7273 85.6825 73.7273C88.6256 73.7273 91.3158 71.189 91.3158 68.1025C91.3158 65.1256 88.6256 62.4776 85.6825 62.4776C82.4948 62.4776 80.0408 65.1256 80.0408 68.1025ZM85.4295 78.2559C79.7962 78.2559 75.3857 73.7273 75.3857 68.1025C75.3857 62.4776 79.7962 58.0587 85.4295 58.0587C87.639 58.0587 89.6039 58.6153 91.3158 59.8212V58.278H95.9792V77.8089H91.3158V76.5945C89.6039 77.6993 87.639 78.2559 85.4295 78.2559Z" fill="black"/>
<path d="M57.4998 68.1025C57.4998 71.189 60.1983 73.7273 63.1415 73.7273C66.3292 73.7273 68.7832 71.189 68.7832 68.1025C68.7832 65.1256 66.3292 62.4776 63.1415 62.4776C60.1983 62.4776 57.4998 65.1256 57.4998 68.1025ZM68.7832 51.5484H73.6828V77.8089H68.7832V76.5945C67.3074 77.6993 65.3425 78.2559 63.1415 78.2559C57.4998 78.2559 52.8447 73.7273 52.8447 68.1025C52.8447 62.4776 57.4998 58.0587 63.1415 58.0587C65.3425 58.0587 67.3074 58.6153 68.7832 59.8212V51.5484Z" fill="black"/>
</svg>
