<svg width="214" height="22" viewBox="0 0 214 22" fill="none" xmlns="http://www.w3.org/2000/svg">
<path d="M213.556 0.387752H210.841L210.447 0.823911V13.6178L196.578 0L196.183 0.387752V21.033L196.578 21.4207H199.293L199.737 21.033V8.04499L213.359 21.4207H214V0.823911L213.556 0.387752ZM145.052 0.823911V3.92543H148.605V21.4207H152.159V3.92495H155.318L155.762 3.48879V0.387752H145.447L145.052 0.823911ZM158.131 0.823911V3.92543H161.684V21.4207H165.238V3.92495H168.396L168.791 3.48879V0.387752H158.526L158.131 0.823911ZM3.55347 0.387752H0.394885L0 0.823911V21.4207H10.7097V17.9314H3.55397L3.55347 0.387752ZM23.7887 0.387752C21.6706 0.387848 19.6 1.0047 17.8389 2.16029C16.0777 3.31589 14.7051 4.95834 13.8946 6.87993C13.0841 8.80153 12.8721 10.916 13.2854 12.9559C13.6987 14.9958 14.7187 16.8696 16.2165 18.3403C17.7143 19.8109 19.6226 20.8125 21.7001 21.2182C23.7775 21.6239 25.9309 21.4156 27.8878 20.6197C29.8447 19.8237 31.5173 18.4758 32.6941 16.7464C33.8708 15.0171 34.4989 12.9839 34.4989 10.904C34.4989 9.52293 34.2219 8.1554 33.6837 6.87948C33.1454 5.60356 32.3565 4.44424 31.362 3.46771C30.3674 2.49118 29.1867 1.71657 27.8873 1.18811C26.5879 0.65965 25.1952 0.387687 23.7887 0.387752ZM23.7887 17.883C22.3692 17.8926 20.9789 17.4874 19.7945 16.719C18.6102 15.9506 17.6853 14.8537 17.1376 13.5677C16.5898 12.2818 16.4439 10.8649 16.7184 9.49735C16.993 8.12977 17.6755 6.87326 18.6792 5.8876C19.6829 4.90193 20.9625 4.23166 22.3552 3.96201C23.7479 3.69236 25.1909 3.83553 26.5005 4.3733C27.8101 4.91106 28.9273 5.81914 29.7099 6.98204C30.4926 8.14494 30.9053 9.51013 30.8957 10.904C30.8957 12.7548 30.1469 14.5298 28.8141 15.8386C27.4813 17.1473 25.6736 17.8825 23.7887 17.8825V17.883ZM181.92 0.387263C179.799 0.377679 177.724 0.986278 175.956 2.13595C174.189 3.28563 172.808 4.92464 171.99 6.84534C171.172 8.76604 170.953 10.882 171.36 12.9251C171.768 14.9682 172.784 16.8465 174.28 18.3221C175.776 19.7977 177.684 20.8042 179.762 21.2139C181.841 21.6237 183.997 21.4183 185.957 20.6239C187.917 19.8295 189.592 18.4817 190.771 16.7514C191.951 15.021 192.58 12.9859 192.58 10.904C192.58 8.12327 191.459 5.45574 189.461 3.48495C187.463 1.51416 184.752 0.400552 181.92 0.387752V0.387263ZM181.92 17.8825C180.5 17.8921 179.11 17.4869 177.925 16.7185C176.741 15.95 175.816 14.8531 175.268 13.5671C174.721 12.2811 174.575 10.8643 174.849 9.49668C175.124 8.12909 175.807 6.87258 176.81 5.88693C177.814 4.90129 179.094 4.23105 180.486 3.96146C181.879 3.69187 183.322 3.8351 184.632 4.37295C185.941 4.91079 187.059 5.81894 187.841 6.98191C188.624 8.14488 189.036 9.51011 189.027 10.904C189.027 12.7548 188.278 14.5298 186.945 15.8386C185.612 17.1473 183.805 17.8825 181.92 17.8825ZM50.3412 0.387263L49.9463 0.775014V14.3928C49.9463 15.3182 49.5719 16.2057 48.9055 16.8601C48.2391 17.5144 47.3353 17.882 46.3928 17.882C45.4458 17.8821 44.5368 17.5161 43.8625 16.8631C43.1883 16.21 42.803 15.3226 42.79 14.3928V0.775503L42.3952 0.387752H39.6315L39.2366 0.775503V14.3933C39.1549 15.3616 39.2787 16.3361 39.6 17.255C39.9214 18.174 40.4333 19.0176 41.1036 19.7325C41.7738 20.4473 42.5877 21.0179 43.4939 21.4082C44.4001 21.7985 45.3789 22 46.3684 22C47.3579 22 48.3367 21.7985 49.2429 21.4082C50.1491 21.0179 50.963 20.4473 51.6333 19.7325C52.3035 19.0176 52.8154 18.174 53.1368 17.255C53.4581 16.3361 53.5819 15.3616 53.5003 14.3933V0.775503L53.1054 0.387752L50.3412 0.387263ZM60.6072 0.823422V21.4202H63.7658L64.21 21.0325V0.387752H61.0514L60.6072 0.823422ZM125.261 0.387752L124.817 0.775503V14.3933C124.817 15.3187 124.442 16.2062 123.776 16.8605C123.109 17.5149 122.206 17.8825 121.263 17.8825C120.321 17.8825 119.417 17.5149 118.751 16.8605C118.084 16.2062 117.71 15.3187 117.71 14.3933V0.775503L117.266 0.387752H114.552L114.156 0.775503V14.3933C114.075 15.3616 114.198 16.3361 114.52 17.255C114.841 18.174 115.353 19.0176 116.023 19.7325C116.693 20.4473 117.507 21.0179 118.414 21.4082C119.32 21.7985 120.299 22 121.288 22C122.278 22 123.256 21.7985 124.163 21.4082C125.069 21.0179 125.883 20.4473 126.553 19.7325C127.223 19.0176 127.735 18.174 128.056 17.255C128.378 16.3361 128.502 15.3616 128.42 14.3933V0.775503L127.976 0.387752H125.261ZM135.527 0.823911V21.4207H138.685L139.08 21.033V0.387752H135.922L135.527 0.823911ZM77.5848 9.30506C76.7711 8.87669 75.9805 8.40748 75.216 7.89928C74.4262 7.3663 73.982 6.78443 74.0313 5.86419C74.0684 5.25526 74.3381 4.68248 74.7864 4.26019C75.2347 3.8379 75.8288 3.59719 76.4499 3.58609C76.9503 3.58606 77.441 3.72187 77.8677 3.97849C78.2944 4.23512 78.6406 4.60258 78.868 5.04028H79.5099L81.5824 3.00471C80.998 2.20165 80.2283 1.54586 79.3362 1.09101C78.4441 0.636155 77.4551 0.395164 76.4499 0.387752C74.8766 0.336729 73.3421 0.873529 72.156 1.88986C71.5445 2.43856 71.054 3.10433 70.7144 3.84618C70.3749 4.58804 70.1935 5.39028 70.1815 6.20354C70.1815 8.43274 71.4155 10.2742 72.6002 10.904L76.4001 13.0364C76.9598 13.2707 77.4187 13.6892 77.698 14.22C77.9773 14.7507 78.0595 15.3605 77.9304 15.9443C77.7654 16.6139 77.3472 17.1968 76.7606 17.5748C76.1741 17.9528 75.463 18.0976 74.7718 17.9798C73.8834 17.883 72.995 17.2043 72.5509 16.9139L71.6132 16.1379L68.9481 18.8517C70.0232 20.1581 71.5206 21.0645 73.1922 21.4207C73.8756 21.5483 74.5696 21.6131 75.2653 21.6143C77.072 21.5889 78.7968 20.8696 80.0699 19.6104C81.3429 18.3513 82.0631 16.6526 82.0759 14.8783C82.0759 11.3401 78.868 9.98375 77.5848 9.30506ZM101.275 13.2305L95.8954 0.387752H91.9963L100.88 21.4207L101.275 21.808L101.719 21.4207L110.553 0.387752H106.704L101.275 13.2305Z" fill="#181716"/>
</svg>
