<svg width="192" height="30" viewBox="0 0 192 30" fill="none" xmlns="http://www.w3.org/2000/svg">
<path d="M22.5 18.5294H12.3529V25.8088C12.3529 29.3382 15.6618 29.3382 16.1029 29.3382V29.7794H0V29.3382C0.441176 29.3382 3.75 29.1176 3.75 25.8088V3.97059C3.75 0.441176 0.441176 0.441176 0 0.441176V0H22.5C29.5588 0 33.0882 4.63235 33.0882 9.26471C33.0882 13.8971 29.7794 18.5294 22.5 18.5294ZM18.5294 1.98529H12.3529V16.5441H18.5294C23.1618 16.5441 25.3676 13.2353 25.3676 9.26471C25.3676 5.51471 23.1618 1.98529 18.5294 1.98529ZM63.0882 30L49.1912 18.5294V25.8088C49.1912 29.3382 52.5 29.3382 52.9412 29.3382V29.7794H36.8382V29.3382C37.2794 29.3382 40.5882 29.1176 40.5882 25.8088V3.97059C40.5882 0.441176 37.2794 0.441176 36.8382 0.441176V0H59.3382C66.3971 0 69.9265 4.63235 69.9265 9.26471C69.9265 13.8971 66.6176 18.5294 59.3382 18.5294H52.5C54.0441 20.0735 57.3529 20.7353 60.2206 20.7353C61.5441 20.7353 62.8676 20.5147 63.9706 20.2941L75.4412 29.5588V30H63.0882ZM55.3676 1.98529H48.9706V16.5441H55.3676C60 16.5441 62.2059 13.2353 62.2059 9.26471C62.2059 5.51471 60 1.98529 55.3676 1.98529ZM100.147 30V29.5588C101.691 29.5588 102.353 29.1176 102.353 28.0147C102.353 27.5735 102.132 26.9118 101.912 26.25L98.8235 21.1765H86.25L84.0441 25.5882C83.8235 26.25 83.6029 26.9118 83.6029 27.5735C83.6029 28.6765 84.0441 29.3382 85.3676 29.3382V29.7794H77.6471V29.3382C79.4118 29.3382 80.7353 28.0147 81.8382 25.8088L91.1029 7.27941L88.4559 3.08824C87.1323 0.882353 85.8088 0.441176 84.2647 0.441176V0H96.6176L111.618 26.25C112.5 27.7941 113.603 29.5588 115.588 29.5588V30H100.147ZM92.2059 9.48529L87.3529 18.9706H97.7206L92.2059 9.48529ZM136.324 30H118.676V29.5588C119.118 29.5588 122.426 29.3382 122.426 26.0294V4.19118C122.426 0.661765 119.118 0.661765 118.676 0.661765V0.220588H136.324C144.265 0.220588 152.426 5.29412 152.426 15.2206C152.647 24.9265 144.265 30 136.324 30ZM142.5 9.48529C142.5 3.97059 138.971 1.98529 135.221 1.98529H131.029V28.0147H135.221C138.971 28.0147 142.5 26.0294 142.5 20.5147V9.48529ZM175.588 30V29.5588C177.132 29.5588 177.794 29.1176 177.794 28.0147C177.794 27.5735 177.574 26.9118 177.353 26.25L174.485 21.1765H161.912L159.706 25.5882C159.485 26.25 159.265 26.9118 159.265 27.5735C159.265 28.6765 159.706 29.3382 161.029 29.3382V29.7794H153.309V29.3382C155.074 29.3382 156.397 28.0147 157.5 25.8088L166.765 7.27941L164.118 3.08824C162.794 0.882353 161.471 0.441176 159.926 0.441176V0H172.059L187.059 26.25C187.941 27.7941 189.044 29.5588 191.029 29.5588V30H175.588ZM167.647 9.48529L162.794 19.1912H173.162L167.647 9.48529Z" fill="black"/>
</svg>
