<svg width="22" height="22" viewBox="0 0 22 22" fill="none" xmlns="http://www.w3.org/2000/svg">
<path d="M0.245653 6.92706L10.7873 1.42706C10.9202 1.3574 11.0788 1.3574 11.2117 1.42706L21.7534 6.92706C21.9047 7.0059 22 7.16171 22 7.33315C22 7.50456 21.9047 7.6604 21.7534 7.73925L11.2118 13.2393C11.1458 13.2741 11.0724 13.2915 11 13.2915C10.9276 13.2915 10.8542 13.2741 10.7882 13.2393L0.246597 7.73925C0.0953484 7.6604 0 7.5046 0 7.33315C0 7.16171 0.0953484 7.0059 0.245653 6.92706ZM11 12.3171L20.5508 7.33315L11 2.34921L1.44925 7.33311L11 12.3171Z" fill="#65FF07"/>
<path d="M0.245653 10.593L1.77831 9.79362C2.00196 9.67903 2.27971 9.76337 2.39705 9.98797C2.5144 10.2126 2.42731 10.4894 2.20271 10.6067L1.44925 11L11 15.9839L20.5508 11L19.7963 10.6076C19.5717 10.4903 19.4847 10.2135 19.602 9.98887C19.7193 9.76337 19.9971 9.67997 20.2207 9.79453L21.7534 10.5939C21.9047 10.6727 22 10.8286 22 11C22 11.1714 21.9047 11.3272 21.7534 11.4061L11.2118 16.9061C11.1458 16.9409 11.0724 16.9583 11 16.9583C10.9276 16.9583 10.8542 16.9409 10.7882 16.9061L0.246597 11.4061C0.0953484 11.3272 0 11.1714 0 11C0 10.8285 0.0953484 10.6727 0.245653 10.593Z" fill="#65FF07"/>
<path d="M0.245653 14.2595L1.77831 13.4602C2.00196 13.3456 2.27971 13.4299 2.39705 13.6545C2.5144 13.8791 2.42731 14.1559 2.20271 14.2733L1.44921 14.6665L11 19.6505L20.5508 14.6665L19.7963 14.2742C19.5717 14.1568 19.4847 13.88 19.602 13.6554C19.7193 13.4308 19.9971 13.3456 20.2207 13.4611L21.7534 14.2605C21.9047 14.3393 22 14.4951 22 14.6665C22 14.8379 21.9047 14.9938 21.7534 15.0726L11.2118 20.5726C11.1458 20.6075 11.0724 20.6249 11 20.6249C10.9276 20.6249 10.8542 20.6075 10.7882 20.5726L0.246597 15.0726C0.0953484 14.9938 0 14.838 0 14.6665C0 14.4951 0.0953484 14.3393 0.245653 14.2595Z" fill="#65FF07"/>
</svg>
