<svg width="23" height="21" viewBox="0 0 23 21" fill="none" xmlns="http://www.w3.org/2000/svg">
<path fill-rule="evenodd" clip-rule="evenodd" d="M3.1381 0H19.6875C21.4178 0 22.8256 1.40751 22.8256 3.1381V13.266C22.8256 14.9963 21.4178 16.4041 19.6875 16.4041H9.73181L3.12696 21V16.4041C1.40166 16.398 0 14.9927 0 13.266V3.1381C0 1.40751 1.40779 0 3.1381 0ZM19.6875 15.0667C20.6804 15.0667 21.4882 14.2588 21.4882 13.266V3.1381C21.4882 2.14506 20.6804 1.33744 19.6875 1.33744H3.1381C2.14519 1.33744 1.33744 2.14506 1.33744 3.1381V13.266C1.33744 14.2588 2.14519 15.0667 3.1381 15.0667H4.4644V18.4401L9.31219 15.0667H19.6875ZM16.7164 4.72575H6.10916V6.06319H16.7164V4.72575ZM6.10916 7.57895H16.7164V8.91639H6.10916V7.57895ZM16.7164 10.4322H6.10916V11.7696H16.7164V10.4322Z" fill="#808080"/>
</svg>
