<svg width="25" height="21" viewBox="0 0 25 21" fill="none" xmlns="http://www.w3.org/2000/svg">
<path fill-rule="evenodd" clip-rule="evenodd" d="M0 4.61257C0 4.89548 0.229604 5.12508 0.512508 5.12508C0.795413 5.12508 1.02502 4.89548 1.02502 4.61257V2.56254C1.02502 1.71485 1.71485 1.02502 2.56254 1.02502H4.61257C4.89548 1.02502 5.12508 0.795413 5.12508 0.512508C5.12508 0.229604 4.89548 0 4.61257 0H2.56254C1.14904 0 0 1.15007 0 2.56254V4.61257ZM23.5754 4.61257C23.5754 4.89548 23.805 5.12508 24.0879 5.12508C24.3708 5.12508 24.6004 4.89548 24.6004 4.61257V2.56254C24.6004 1.15007 23.4514 0 22.0379 0H19.9878C19.7049 0 19.4753 0.229604 19.4753 0.512508C19.4753 0.795413 19.7049 1.02502 19.9878 1.02502H22.0379C22.8855 1.02502 23.5754 1.71485 23.5754 2.56254V4.61257ZM4.61257 20.5003H2.56254C1.14904 20.5003 0 19.3503 0 17.9378V15.8878C0 15.6048 0.229604 15.3752 0.512508 15.3752C0.795413 15.3752 1.02502 15.6048 1.02502 15.8878V17.9378C1.02502 18.7855 1.71485 19.4753 2.56254 19.4753H4.61257C4.89548 19.4753 5.12508 19.7049 5.12508 19.9878C5.12508 20.2707 4.89548 20.5003 4.61257 20.5003ZM19.9878 20.5003H22.0379C23.4514 20.5003 24.6004 19.3503 24.6004 17.9378V15.8878C24.6004 15.6048 24.3708 15.3752 24.0879 15.3752C23.805 15.3752 23.5754 15.6048 23.5754 15.8878V17.9378C23.5754 18.7855 22.8855 19.4753 22.0379 19.4753H19.9878C19.7049 19.4753 19.4753 19.7049 19.4753 19.9878C19.4753 20.2707 19.7049 20.5003 19.9878 20.5003ZM12.3002 16.4004C8.35081 16.4004 4.98568 13.9219 4.11544 10.3722C4.09494 10.2923 4.09494 10.2082 4.11544 10.1283C4.98568 6.57864 8.35081 4.10015 12.3002 4.10015C16.2496 4.10015 19.6147 6.57864 20.485 10.1283C20.5055 10.2082 20.5055 10.2923 20.485 10.3722C19.6147 13.9219 16.2496 16.4004 12.3002 16.4004ZM5.14148 10.2503C5.94714 13.2741 8.87152 15.3753 12.3002 15.3753C15.7289 15.3753 18.6532 13.2741 19.4589 10.2503C18.6532 7.22645 15.7299 5.12517 12.3002 5.12517C8.87049 5.12517 5.94714 7.22645 5.14148 10.2503ZM9.22515 10.2503C9.22515 11.9456 10.6048 13.3253 12.3002 13.3253C13.9956 13.3253 15.3752 11.9456 15.3752 10.2503C15.3752 8.55487 13.9956 7.1752 12.3002 7.1752C10.6048 7.1752 9.22515 8.55487 9.22515 10.2503ZM10.2502 10.2503C10.2502 9.11966 11.1696 8.20022 12.3002 8.20022C13.4308 8.20022 14.3502 9.11966 14.3502 10.2503C14.3502 11.3808 13.4308 12.3003 12.3002 12.3003C11.1696 12.3003 10.2502 11.3808 10.2502 10.2503Z" fill="black"/>
</svg>
