<svg width="26" height="26" viewBox="0 0 26 26" fill="none" xmlns="http://www.w3.org/2000/svg">
<g opacity="0.5">
<path d="M14.2133 26H11.7867C10.9666 26 10.2743 25.3858 10.1768 24.57L9.91792 22.5377C9.40117 22.3698 8.90283 22.1628 8.42942 21.9213L6.81092 23.179C6.15442 23.6871 5.23033 23.6286 4.6605 23.0425L2.95425 21.3363C2.3725 20.7718 2.314 19.8477 2.82208 19.1923L4.07983 17.5728C3.83717 17.0993 3.63025 16.601 3.46342 16.0843L1.42675 15.8253C0.61425 15.7257 0 15.0334 0 14.2133V11.7867C0 10.9666 0.61425 10.2743 1.43 10.1768L3.46233 9.91792C3.63025 9.40117 3.83717 8.90283 4.07875 8.42942L2.82208 6.81092C2.31292 6.15442 2.3725 5.22925 2.95967 4.65942L4.66592 2.95317C5.23033 2.37142 6.1555 2.314 6.80983 2.821L8.42833 4.07983C8.90175 3.83825 9.40008 3.63133 9.91792 3.46342L10.1768 1.42675C10.2743 0.61425 10.9666 0 11.7867 0H14.2133C15.0334 0 15.7257 0.61425 15.8232 1.43L16.0821 3.46233C16.5999 3.63025 17.0982 3.83717 17.5717 4.07875L19.1902 2.821C19.8478 2.31292 20.7708 2.37142 21.3406 2.95858L23.0468 4.66483C23.6286 5.22925 23.6871 6.15333 23.179 6.80875L21.9213 8.42833C22.1639 8.90175 22.3708 9.40008 22.5377 9.91683L24.5743 10.1757C25.3858 10.2743 26 10.9666 26 11.7867V14.2133C26 15.0334 25.3858 15.7257 24.57 15.8232L22.5377 16.0821C22.3698 16.5988 22.1628 17.0972 21.9213 17.5706L23.179 19.1891C23.6882 19.8456 23.6286 20.7697 23.0414 21.3395L21.3352 23.0458C20.7708 23.6275 19.8456 23.6871 19.1913 23.1779L17.5717 21.9202C17.0982 22.1628 16.5999 22.3698 16.0832 22.5366L15.8243 24.5733C15.7257 25.3858 15.0334 26 14.2133 26ZM8.37417 20.735C8.46408 20.735 8.55617 20.7577 8.6385 20.8032C9.23542 21.1369 9.88217 21.4056 10.5603 21.6006C10.7683 21.6602 10.9211 21.8378 10.9482 22.0523L11.2515 24.4357C11.284 24.7076 11.5191 24.9167 11.7867 24.9167H14.2133C14.4809 24.9167 14.716 24.7076 14.7474 24.4411L15.0518 22.0534C15.0789 21.8389 15.2317 21.6613 15.4397 21.6017C16.1178 21.4067 16.7646 21.138 17.3615 20.8043C17.5511 20.6982 17.7873 20.7166 17.9573 20.8498L19.8532 22.3232C20.0709 22.4922 20.3764 22.4781 20.5628 22.2863L22.2798 20.5693C22.4759 20.3786 22.4911 20.0731 22.3221 19.8542L20.8488 17.9584C20.7155 17.7873 20.6971 17.5522 20.8032 17.3626C21.1369 16.7657 21.4056 16.1189 21.6006 15.4408C21.6602 15.2328 21.8378 15.08 22.0523 15.0529L24.4357 14.7496C24.7076 14.716 24.9167 14.4809 24.9167 14.2133V11.7867C24.9167 11.5191 24.7076 11.284 24.4411 11.2526L22.0534 10.9482C21.8389 10.9211 21.6613 10.7683 21.6017 10.5603C21.4067 9.88217 21.138 9.23542 20.8043 8.6385C20.6982 8.44892 20.7155 8.21383 20.8498 8.04267L22.3232 6.14683C22.4933 5.928 22.4781 5.6225 22.2874 5.43833L20.5703 3.72125C20.3808 3.52408 20.0742 3.50892 19.8553 3.679L17.9595 5.15233C17.7873 5.28558 17.5522 5.304 17.3626 5.19783C16.7678 4.86417 16.1211 4.59658 15.4408 4.4005C15.2328 4.34092 15.08 4.16325 15.0529 3.94875L14.7496 1.56542C14.716 1.29242 14.4809 1.08333 14.2133 1.08333H11.7867C11.5191 1.08333 11.284 1.29242 11.2526 1.55892L10.9482 3.94658C10.9211 4.16108 10.7683 4.33875 10.5603 4.39942C9.88 4.59442 9.23325 4.86308 8.6385 5.19567C8.44892 5.30292 8.21383 5.28342 8.04158 5.15125L6.14575 3.67792C5.92692 3.50783 5.6225 3.523 5.43725 3.71367L3.72017 5.43183C3.52408 5.6225 3.50892 5.928 3.67792 6.14683L5.15125 8.04267C5.2845 8.21383 5.30292 8.44892 5.19675 8.6385C4.862 9.23542 4.59442 9.88217 4.39942 10.5603C4.33983 10.7683 4.16217 10.9211 3.94767 10.9482L1.56433 11.2515C1.29242 11.284 1.08333 11.5191 1.08333 11.7867V14.2133C1.08333 14.4809 1.29242 14.716 1.55892 14.7474L3.94658 15.0518C4.16108 15.0789 4.33875 15.2317 4.39833 15.4397C4.59333 16.1178 4.862 16.7646 5.19567 17.3615C5.30183 17.5511 5.2845 17.7862 5.15017 17.9573L3.67683 19.8532C3.50675 20.072 3.52192 20.3775 3.71258 20.5617L5.42967 22.2788C5.61925 22.4748 5.92367 22.49 6.14467 22.321L8.0405 20.8477C8.13908 20.774 8.25608 20.735 8.37417 20.735Z" fill="white"/>
<path d="M12.9987 18.4154C10.0119 18.4154 7.58203 15.9855 7.58203 12.9987C7.58203 10.0119 10.0119 7.58203 12.9987 7.58203C15.9854 7.58203 18.4154 10.0119 18.4154 12.9987C18.4154 15.9855 15.9854 18.4154 12.9987 18.4154ZM12.9987 8.66537C10.6089 8.66537 8.66536 10.6089 8.66536 12.9987C8.66536 15.3885 10.6089 17.332 12.9987 17.332C15.3885 17.332 17.332 15.3885 17.332 12.9987C17.332 10.6089 15.3885 8.66537 12.9987 8.66537Z" fill="white"/>
</g>
</svg>
