<svg width="29" height="24" viewBox="0 0 29 24" fill="none" xmlns="http://www.w3.org/2000/svg">
<path d="M20.3835 13.0703H16.6484C15.6262 13.0703 14.7949 13.9016 14.7949 14.9238V17.7883C14.7949 18.8105 15.6262 19.6418 16.6484 19.6418H20.3835C21.4057 19.6418 22.237 18.8105 22.237 17.7883V14.9238C22.237 13.9016 21.4057 13.0703 20.3835 13.0703ZM20.889 17.7883C20.889 18.0691 20.6587 18.2938 20.3835 18.2938H16.6484C16.3676 18.2938 16.1429 18.0635 16.1429 17.7883V14.9238C16.1429 14.643 16.3732 14.4183 16.6484 14.4183H20.3835C20.6643 14.4183 20.889 14.6486 20.889 14.9238V17.7883Z" fill="#848484"/>
<path d="M28.3424 7.86333C28.3424 7.74538 28.3144 7.63304 28.2526 7.53194L24.1636 0.342617C24.0457 0.1348 23.821 0 23.5795 0H5.6118C5.37029 0 5.14562 0.129183 5.02767 0.342617L0.944359 7.53194C0.888192 7.63304 0.854492 7.74538 0.854492 7.86333C0.854492 9.47531 1.82617 10.857 3.21349 11.4692V23.326C3.21349 23.6967 3.51679 24 3.88749 24H7.61134C7.61695 24 7.62257 24 7.62819 24H12.8517C12.8573 24 12.8629 24 12.8685 24H25.3038C25.6745 24 25.9778 23.6967 25.9778 23.326V11.5535C25.9778 11.5254 25.9778 11.5029 25.9722 11.4805C27.3651 10.8682 28.3424 9.48093 28.3424 7.86333ZM6.00497 1.35362H23.1863L26.3822 6.97589H2.81471L6.00497 1.35362ZM20.4173 8.31828C20.2039 9.53148 19.1423 10.4526 17.8674 10.4526C16.5924 10.4526 15.5308 9.53148 15.3174 8.31828H20.4173ZM13.8851 8.31828C13.6717 9.53148 12.6102 10.4526 11.3352 10.4526C10.0602 10.4526 8.99865 9.53148 8.7796 8.31828H13.8851ZM2.24742 8.31828H7.35297C7.13954 9.53148 6.07237 10.4526 4.79739 10.4526C3.52241 10.4582 2.46086 9.53148 2.24742 8.31828ZM12.1777 22.652H8.30219V15.3784C8.30219 14.8505 8.72905 14.418 9.26264 14.418H11.2229C11.7508 14.418 12.1833 14.8448 12.1833 15.3784V22.652H12.1777ZM24.6298 22.652H13.5257V15.3784C13.5257 14.1091 12.4922 13.07 11.2172 13.07H9.25702C7.98765 13.07 6.94857 14.1034 6.94857 15.3784V22.6576H4.56149V11.8006C4.64012 11.8062 4.71876 11.8062 4.79739 11.8062C6.15662 11.8062 7.35859 11.1154 8.06629 10.0651C8.77399 11.1154 9.97595 11.8062 11.3352 11.8062C12.6944 11.8062 13.8908 11.1154 14.6041 10.0651C15.3118 11.1154 16.5137 11.8062 17.8674 11.8062C19.2266 11.8062 20.4229 11.1154 21.1306 10.0651C21.8383 11.1154 23.0403 11.8062 24.3995 11.8062C24.4782 11.8062 24.5512 11.8006 24.6298 11.8006V22.652ZM24.3995 10.4582C23.1246 10.4582 22.063 9.53709 21.8496 8.32389H26.9551C26.7361 9.53148 25.6745 10.4582 24.3995 10.4582Z" fill="#848484"/>
</svg>
