<svg width="15" height="18" viewBox="0 0 15 18" fill="none" xmlns="http://www.w3.org/2000/svg">
<path d="M14.6761 6.78249L8.18056 0.286976C7.99529 0.101707 7.74812 0 7.47929 0C7.21573 0 6.96871 0.101707 6.78344 0.286976L0.287781 6.78249C-0.0959268 7.16634 -0.0959268 7.79107 0.287781 8.17463L0.877537 8.76468C1.06281 8.9498 1.30998 9.05166 1.57368 9.05166C1.83724 9.05166 2.0929 8.9498 2.27802 8.76468L6.07588 4.97502V17.0147C6.07588 17.5573 6.50085 18 7.04349 18H7.87764C8.42027 18 8.88827 17.5573 8.88827 17.0147V4.93229L12.7076 8.76468C12.8928 8.9498 13.1333 9.05166 13.3971 9.05166C13.6608 9.05166 13.9043 8.9498 14.0897 8.76468L14.6777 8.17463C15.0615 7.79093 15.0601 7.16634 14.6761 6.78249Z" fill="#00CA20"/>
</svg>
