<svg width="250" height="127" viewBox="0 0 250 127" fill="none" xmlns="http://www.w3.org/2000/svg">
<g opacity="0.3" filter="url(#filter0_d)">
<path d="M186.427 0C160.758 0 144.114 13.0962 135.089 28.9079L135.02 29.0797C134.3 30.3515 133.613 31.6233 132.996 32.9295L126.098 46.0945L116.421 28.186C116.387 28.1173 116.352 28.0142 116.284 27.9454L116.146 27.7048H116.112C106.229 10.0713 87.0116 0 63.7107 0C21.8789 0 4 34.7513 4 59.3625C4 86.6892 21.2612 119 62.7842 119C81.3151 119 96.5859 111.747 107.155 100.198C107.19 100.163 107.258 100.163 107.293 100.095C107.499 99.8198 107.67 99.6479 107.842 99.3729C109.317 97.723 110.656 95.97 111.925 94.1482C112.543 93.3576 112.543 93.3576 112.543 93.3576L112.783 92.9108C115.048 89.5078 116.97 85.8299 118.514 81.9801L124.211 71.1181L132.858 87.0673C133.888 89.2672 135.02 91.3983 136.324 93.4607L136.668 94.1138L136.702 94.0794C145.864 108.31 161.684 119 185.534 119C222.047 119 246 90.9171 246 56.922C245.966 21.552 220.537 0 186.427 0ZM66.9022 113.225C39.6205 113.225 18.4129 90.4703 18.4129 55.1002C18.4129 21.8614 37.3557 5.15598 62.6469 5.15598C77.6776 5.15598 92.0218 12.8899 100.567 27.6704H100.601L118.48 60.5999L117.244 62.9373L103.484 89.2672L101.15 93.7357C91.8502 109.616 76.099 113.225 66.9022 113.225ZM189.618 113.225C170.778 113.225 154.855 102.363 146.791 83.9737L131.829 56.647L145.933 29.6641H145.967C153.14 13.3712 167.69 5.15598 185.397 5.15598C209.35 5.15598 231.45 24.7487 231.45 61.1499C231.45 105.354 203.242 113.225 189.618 113.225Z" fill="white"/>
</g>
<defs>
<filter id="filter0_d" x="0" y="0" width="250" height="127" filterUnits="userSpaceOnUse" color-interpolation-filters="sRGB">
<feFlood flood-opacity="0" result="BackgroundImageFix"/>
<feColorMatrix in="SourceAlpha" type="matrix" values="0 0 0 0 0 0 0 0 0 0 0 0 0 0 0 0 0 0 127 0"/>
<feOffset dy="4"/>
<feGaussianBlur stdDeviation="2"/>
<feColorMatrix type="matrix" values="0 0 0 0 0 0 0 0 0 0 0 0 0 0 0 0 0 0 0.25 0"/>
<feBlend mode="normal" in2="BackgroundImageFix" result="effect1_dropShadow"/>
<feBlend mode="normal" in="SourceGraphic" in2="effect1_dropShadow" result="shape"/>
</filter>
</defs>
</svg>
